<svg xmlns="http://www.w3.org/2000/svg" xmlns:xlink="http://www.w3.org/1999/xlink" width="500" zoomAndPan="magnify" viewBox="0 0 375 374.999991" height="500" preserveAspectRatio="xMidYMid meet" version="1.0"><defs><g/><clipPath id="f060b4d5c5"><path d="M 117.199219 140.839844 L 185.324219 140.839844 L 185.324219 177.410156 L 117.199219 177.410156 Z M 117.199219 140.839844 " clip-rule="nonzero"/></clipPath><clipPath id="c29d596586"><path d="M 166 86.867188 L 204 86.867188 L 204 152 L 166 152 Z M 166 86.867188 " clip-rule="nonzero"/></clipPath><clipPath id="b936713c9a"><path d="M 190 136.761719 L 257.792969 136.761719 L 257.792969 177.410156 L 190 177.410156 Z M 190 136.761719 " clip-rule="nonzero"/></clipPath></defs><path fill="#64dad5" d="M 141.066406 154.988281 C 141.28125 154.777344 141.488281 154.558594 141.703125 154.339844 L 142.335938 153.6875 C 142.546875 153.472656 142.757812 153.246094 142.964844 153.035156 C 143.164062 152.824219 143.367188 152.613281 143.578125 152.414062 C 143.785156 152.207031 143.996094 152.003906 144.214844 151.808594 C 144.429688 151.609375 144.65625 151.417969 144.878906 151.226562 C 145.105469 151.035156 145.335938 150.847656 145.570312 150.664062 C 145.804688 150.480469 146.042969 150.296875 146.285156 150.121094 C 146.527344 149.941406 146.773438 149.765625 147.023438 149.59375 C 147.273438 149.421875 147.53125 149.253906 147.785156 149.082031 L 147.335938 149.175781 C 147.183594 149.210938 147.03125 149.246094 146.882812 149.285156 C 146.585938 149.363281 146.289062 149.449219 145.992188 149.542969 C 145.699219 149.640625 145.40625 149.746094 145.113281 149.855469 C 144.824219 149.96875 144.535156 150.089844 144.25 150.21875 C 143.960938 150.34375 143.679688 150.484375 143.402344 150.628906 C 143.121094 150.773438 142.84375 150.925781 142.570312 151.085938 C 142.300781 151.246094 142.03125 151.414062 141.765625 151.589844 C 141.507812 151.757812 141.253906 151.917969 141.003906 152.089844 L 140.246094 152.597656 C 139.996094 152.769531 139.742188 152.933594 139.496094 153.109375 L 138 154.144531 L 136.523438 155.195312 C 136.277344 155.371094 136.03125 155.546875 135.785156 155.726562 L 135.054688 156.261719 L 133.402344 157.46875 L 135.160156 158.875 C 135.808594 159.394531 136.460938 159.910156 137.117188 160.417969 C 137.769531 160.929688 138.429688 161.433594 139.089844 161.9375 C 139.75 162.4375 140.414062 162.933594 141.082031 163.425781 L 141.621094 163.8125 L 141.875 163.988281 L 142.171875 164.179688 C 142.371094 164.308594 142.574219 164.441406 142.773438 164.558594 L 143.367188 164.898438 C 144.164062 165.335938 144.984375 165.738281 145.835938 166.066406 C 146.046875 166.15625 146.261719 166.230469 146.476562 166.304688 C 146.691406 166.378906 146.90625 166.460938 147.125 166.523438 L 147.777344 166.726562 L 148.4375 166.898438 C 149.324219 167.113281 150.21875 167.285156 151.125 167.378906 C 152.027344 167.472656 152.933594 167.53125 153.839844 167.5 C 154.070312 167.503906 154.292969 167.488281 154.519531 167.476562 C 154.746094 167.460938 154.972656 167.453125 155.199219 167.429688 L 155.871094 167.363281 L 156.542969 167.265625 C 156.765625 167.238281 156.988281 167.191406 157.210938 167.148438 C 157.433594 167.109375 157.652344 167.066406 157.871094 167.011719 L 158.527344 166.859375 L 159.179688 166.675781 C 159.394531 166.617188 159.605469 166.542969 159.820312 166.472656 C 160.03125 166.402344 160.246094 166.332031 160.453125 166.25 L 161.082031 166.007812 L 161.695312 165.742188 C 161.898438 165.652344 162.097656 165.550781 162.296875 165.453125 C 162.5 165.355469 162.699219 165.257812 162.894531 165.152344 C 163.089844 165.042969 163.285156 164.941406 163.476562 164.832031 L 164.042969 164.480469 C 164.234375 164.371094 164.414062 164.242188 164.597656 164.121094 C 164.78125 163.996094 164.96875 163.875 165.144531 163.742188 L 165.667969 163.34375 L 166.179688 162.925781 C 166.351562 162.789062 166.515625 162.644531 166.675781 162.496094 C 166.832031 162.34375 167 162.203125 167.152344 162.046875 L 167.613281 161.585938 C 167.765625 161.433594 167.902344 161.28125 168.046875 161.125 C 168.613281 160.515625 169.175781 159.894531 169.734375 159.265625 C 170.289062 158.636719 170.835938 158 171.367188 157.339844 C 170.621094 157.746094 169.898438 158.171875 169.179688 158.601562 C 168.460938 159.035156 167.75 159.480469 167.046875 159.929688 L 166.523438 160.265625 L 166.011719 160.578125 C 165.84375 160.683594 165.664062 160.773438 165.492188 160.875 C 165.320312 160.972656 165.152344 161.074219 164.972656 161.160156 L 164.449219 161.433594 L 163.914062 161.683594 C 163.742188 161.773438 163.558594 161.847656 163.378906 161.925781 C 163.199219 162.003906 163.023438 162.085938 162.839844 162.152344 C 162.117188 162.441406 161.382812 162.6875 160.644531 162.898438 C 159.902344 163.109375 159.152344 163.269531 158.402344 163.402344 C 157.652344 163.539062 156.894531 163.613281 156.140625 163.664062 C 155.382812 163.71875 154.628906 163.710938 153.878906 163.683594 L 153.3125 163.652344 L 152.753906 163.601562 C 152.566406 163.589844 152.378906 163.558594 152.195312 163.535156 C 152.007812 163.511719 151.820312 163.492188 151.636719 163.457031 L 151.082031 163.367188 L 150.535156 163.257812 C 150.347656 163.222656 150.167969 163.171875 149.988281 163.132812 C 149.804688 163.089844 149.621094 163.050781 149.441406 162.996094 C 148.71875 162.808594 148.011719 162.5625 147.316406 162.296875 L 146.796875 162.089844 L 146.285156 161.859375 C 146.113281 161.785156 145.945312 161.703125 145.78125 161.621094 C 145.613281 161.535156 145.441406 161.460938 145.277344 161.367188 L 144.785156 161.101562 C 144.625 161.011719 144.480469 160.921875 144.324219 160.832031 L 144.09375 160.699219 L 143.832031 160.53125 L 143.34375 160.214844 C 142.652344 159.753906 141.960938 159.296875 141.265625 158.84375 C 140.570312 158.390625 139.875 157.941406 139.171875 157.5 C 139.039062 157.414062 138.90625 157.332031 138.777344 157.25 L 139.78125 156.273438 L 141.066406 154.988281 " fill-opacity="1" fill-rule="nonzero"/><g clip-path="url(#f060b4d5c5)"><path fill="#c7b8ea" d="M 183.429688 159.832031 C 182.828125 160.25 182.230469 160.667969 181.632812 161.089844 C 181.035156 161.511719 180.4375 161.9375 179.84375 162.363281 C 179.25 162.785156 178.65625 163.214844 178.066406 163.644531 C 177.476562 164.074219 176.882812 164.5 176.296875 164.933594 L 174.53125 166.234375 L 172.773438 167.542969 C 172.191406 167.980469 171.601562 168.414062 171.023438 168.855469 L 171.097656 168.796875 C 170.597656 169.097656 170.101562 169.410156 169.597656 169.703125 L 168.835938 170.121094 L 168.453125 170.332031 C 168.324219 170.398438 168.195312 170.460938 168.066406 170.527344 L 167.289062 170.914062 C 167.035156 171.046875 166.765625 171.152344 166.503906 171.269531 L 166.109375 171.445312 L 165.914062 171.53125 L 165.714844 171.609375 L 164.914062 171.921875 C 163.84375 172.3125 162.757812 172.660156 161.65625 172.90625 C 160.554688 173.152344 159.445312 173.335938 158.320312 173.441406 C 157.757812 173.496094 157.1875 173.527344 156.613281 173.546875 L 155.742188 173.570312 L 155.292969 173.582031 L 154.859375 173.589844 L 154.425781 173.589844 L 154.015625 173.585938 C 153.730469 173.574219 153.449219 173.570312 153.164062 173.554688 C 152.601562 173.523438 152.035156 173.480469 151.472656 173.417969 C 150.351562 173.289062 149.234375 173.117188 148.132812 172.863281 C 147.582031 172.738281 147.035156 172.597656 146.492188 172.441406 L 146.289062 172.378906 L 146.1875 172.351562 L 145.671875 172.1875 C 145.394531 172.09375 145.152344 172.023438 144.882812 171.925781 C 143.816406 171.554688 142.773438 171.121094 141.761719 170.628906 C 140.75 170.128906 139.765625 169.578125 138.8125 168.976562 C 138.574219 168.824219 138.335938 168.675781 138.105469 168.515625 L 137.753906 168.277344 L 137.382812 168.015625 L 135.898438 166.980469 C 134.910156 166.285156 133.910156 165.605469 132.917969 164.921875 C 131.921875 164.238281 130.929688 163.546875 129.929688 162.871094 L 126.929688 160.84375 C 125.929688 160.160156 124.921875 159.5 123.917969 158.828125 C 123.5 158.546875 123.082031 158.269531 122.664062 157.992188 L 123.632812 157.125 L 126.246094 154.757812 C 127.117188 153.96875 127.980469 153.167969 128.847656 152.375 C 129.714844 151.585938 130.570312 150.777344 131.429688 149.976562 C 132.292969 149.179688 133.144531 148.363281 134 147.558594 L 135.277344 146.339844 L 136.546875 145.121094 C 136.761719 144.914062 136.964844 144.726562 137.179688 144.53125 C 137.394531 144.335938 137.613281 144.144531 137.832031 143.957031 C 138.269531 143.578125 138.722656 143.207031 139.183594 142.851562 C 139.644531 142.496094 140.113281 142.148438 140.597656 141.816406 C 141.078125 141.480469 141.570312 141.15625 142.066406 140.84375 C 141.515625 141.046875 140.964844 141.269531 140.425781 141.511719 C 139.882812 141.757812 139.351562 142.019531 138.824219 142.296875 C 138.300781 142.578125 137.78125 142.875 137.273438 143.1875 C 137.019531 143.347656 136.765625 143.507812 136.515625 143.675781 C 136.269531 143.835938 136.011719 144.015625 135.773438 144.179688 C 135.285156 144.527344 134.820312 144.871094 134.339844 145.21875 L 132.910156 146.253906 C 131.964844 146.953125 131.011719 147.644531 130.074219 148.347656 C 129.132812 149.054688 128.183594 149.75 127.25 150.464844 C 126.3125 151.175781 125.375 151.878906 124.441406 152.59375 L 121.644531 154.742188 L 118.867188 156.90625 L 117.199219 158.207031 L 118.972656 159.554688 C 119.9375 160.285156 120.910156 161.003906 121.875 161.722656 C 122.847656 162.441406 123.8125 163.171875 124.789062 163.882812 L 127.710938 166.023438 C 128.683594 166.738281 129.667969 167.4375 130.648438 168.144531 C 131.628906 168.851562 132.601562 169.5625 133.589844 170.261719 L 135.066406 171.308594 L 135.433594 171.570312 L 135.832031 171.847656 C 136.09375 172.03125 136.363281 172.207031 136.632812 172.382812 C 137.175781 172.730469 137.726562 173.0625 138.289062 173.378906 C 138.851562 173.691406 139.421875 173.988281 140.003906 174.265625 C 141.167969 174.820312 142.363281 175.308594 143.582031 175.71875 C 143.878906 175.824219 144.214844 175.929688 144.515625 176.019531 L 144.949219 176.144531 L 145.078125 176.183594 L 145.429688 176.277344 C 146.050781 176.441406 146.675781 176.589844 147.308594 176.71875 C 147.9375 176.84375 148.570312 176.957031 149.207031 177.042969 C 149.527344 177.089844 149.847656 177.125 150.164062 177.164062 C 150.484375 177.195312 150.804688 177.230469 151.125 177.25 C 151.765625 177.296875 152.40625 177.324219 153.050781 177.332031 C 153.371094 177.339844 153.691406 177.335938 154.011719 177.332031 L 154.503906 177.320312 L 154.75 177.3125 L 154.976562 177.300781 L 155.449219 177.277344 L 155.90625 177.25 C 156.214844 177.226562 156.527344 177.203125 156.839844 177.175781 C 157.472656 177.121094 158.105469 177.054688 158.742188 176.957031 C 160.015625 176.773438 161.28125 176.503906 162.515625 176.132812 C 163.75 175.765625 164.945312 175.300781 166.109375 174.777344 L 166.96875 174.363281 L 167.183594 174.257812 L 167.390625 174.144531 L 167.808594 173.917969 C 168.085938 173.761719 168.371094 173.621094 168.640625 173.457031 L 169.449219 172.96875 C 169.582031 172.886719 169.71875 172.808594 169.851562 172.71875 L 170.242188 172.457031 L 171.019531 171.925781 C 171.53125 171.5625 172.027344 171.183594 172.527344 170.8125 L 172.605469 170.753906 C 173.144531 170.261719 173.675781 169.761719 174.210938 169.265625 L 175.8125 167.769531 L 177.40625 166.265625 C 177.9375 165.765625 178.464844 165.257812 178.992188 164.753906 C 179.523438 164.25 180.050781 163.746094 180.574219 163.234375 C 181.097656 162.726562 181.625 162.214844 182.144531 161.703125 C 182.667969 161.191406 183.1875 160.675781 183.703125 160.15625 L 184.476562 159.378906 L 185.246094 158.59375 L 184.335938 159.210938 L 183.429688 159.832031 " fill-opacity="1" fill-rule="nonzero"/></g><g clip-path="url(#c29d596586)"><path fill="#c7b8ea" d="M 166.972656 125.1875 L 167.003906 125.648438 L 167.078125 126.578125 C 167.136719 127.207031 167.207031 127.84375 167.308594 128.476562 C 167.503906 129.742188 167.785156 131 168.15625 132.226562 C 168.53125 133.453125 169.011719 134.636719 169.539062 135.789062 L 169.960938 136.640625 L 170.066406 136.851562 L 170.179688 137.0625 L 170.410156 137.476562 C 170.566406 137.75 170.707031 138.03125 170.875 138.296875 L 171.371094 139.097656 C 171.453125 139.230469 171.535156 139.363281 171.621094 139.492188 L 171.890625 139.878906 L 172.421875 140.648438 C 172.601562 140.902344 172.796875 141.144531 172.984375 141.394531 L 173.550781 142.132812 L 173.597656 142.195312 L 174.660156 143.3125 C 175.015625 143.683594 175.367188 144.058594 175.722656 144.429688 C 176.4375 145.167969 177.148438 145.910156 177.871094 146.644531 L 178.953125 147.746094 L 180.039062 148.839844 L 181.136719 149.929688 C 181.503906 150.289062 181.875 150.648438 182.246094 151.007812 C 181.960938 150.574219 181.675781 150.148438 181.382812 149.722656 L 180.511719 148.449219 L 179.628906 147.179688 L 178.738281 145.921875 C 178.144531 145.078125 177.542969 144.246094 176.941406 143.410156 C 176.640625 142.992188 176.335938 142.582031 176.035156 142.164062 L 175.125 140.921875 L 175.171875 140.980469 C 174.878906 140.46875 174.566406 139.972656 174.277344 139.460938 L 173.65625 138.300781 C 173.589844 138.171875 173.53125 138.039062 173.464844 137.90625 L 173.082031 137.125 C 172.953125 136.863281 172.851562 136.59375 172.734375 136.328125 L 172.476562 135.730469 L 172.398438 135.53125 L 172.09375 134.722656 C 171.707031 133.640625 171.371094 132.546875 171.132812 131.4375 C 170.890625 130.324219 170.714844 129.207031 170.625 128.074219 C 170.574219 127.511719 170.550781 126.941406 170.527344 126.363281 L 170.503906 125.488281 L 170.5 125.042969 L 170.496094 124.609375 L 170.496094 124.382812 L 170.5 124.171875 L 170.507812 123.757812 C 170.519531 123.476562 170.527344 123.191406 170.546875 122.90625 C 170.582031 122.339844 170.625 121.777344 170.691406 121.214844 C 170.753906 120.648438 170.832031 120.089844 170.929688 119.53125 C 171.023438 118.972656 171.140625 118.421875 171.269531 117.871094 C 171.394531 117.320312 171.535156 116.773438 171.695312 116.230469 L 171.753906 116.027344 L 171.785156 115.925781 L 171.8125 115.835938 L 171.949219 115.40625 C 172.039062 115.128906 172.117188 114.890625 172.214844 114.617188 C 172.597656 113.554688 173.039062 112.515625 173.53125 111.503906 C 173.777344 110.996094 174.042969 110.496094 174.316406 110.003906 C 174.597656 109.515625 174.886719 109.03125 175.191406 108.558594 C 175.347656 108.324219 175.5 108.085938 175.660156 107.855469 L 175.898438 107.503906 L 176.15625 107.132812 L 177.195312 105.648438 C 177.882812 104.65625 178.582031 103.671875 179.261719 102.675781 L 181.3125 99.6875 C 182 98.695312 182.667969 97.6875 183.347656 96.691406 C 184.023438 95.6875 184.703125 94.691406 185.367188 93.679688 L 186.179688 92.460938 L 186.976562 93.347656 C 187.742188 94.210938 188.523438 95.058594 189.300781 95.914062 C 189.6875 96.339844 190.074219 96.769531 190.464844 97.191406 L 191.640625 98.460938 L 192.816406 99.734375 L 194 100.996094 C 194.394531 101.417969 194.785156 101.839844 195.1875 102.257812 L 196.378906 103.511719 C 196.777344 103.933594 197.175781 104.347656 197.578125 104.761719 L 198.785156 106.007812 C 199.1875 106.417969 199.574219 106.824219 199.949219 107.253906 C 200.328125 107.679688 200.699219 108.113281 201.058594 108.558594 C 201.414062 109.003906 201.765625 109.460938 202.101562 109.925781 C 202.441406 110.390625 202.769531 110.867188 203.089844 111.347656 C 202.886719 110.808594 202.660156 110.269531 202.414062 109.742188 C 202.167969 109.214844 201.90625 108.691406 201.625 108.179688 C 201.34375 107.667969 201.050781 107.160156 200.734375 106.664062 C 200.421875 106.167969 200.085938 105.675781 199.75 105.203125 L 198.738281 103.796875 C 198.402344 103.324219 198.0625 102.855469 197.722656 102.390625 L 196.703125 100.992188 C 196.363281 100.523438 196.015625 100.0625 195.671875 99.597656 L 194.640625 98.207031 L 192.5625 95.441406 C 192.214844 94.980469 191.863281 94.523438 191.511719 94.066406 C 190.8125 93.148438 190.117188 92.230469 189.40625 91.320312 L 187.285156 88.585938 L 185.949219 86.867188 L 184.582031 88.699219 L 182.414062 91.601562 C 181.6875 92.566406 180.976562 93.542969 180.261719 94.515625 C 179.550781 95.492188 178.828125 96.460938 178.125 97.441406 L 176.003906 100.378906 C 175.292969 101.355469 174.601562 102.347656 173.898438 103.328125 L 172.851562 104.804688 L 172.589844 105.175781 L 172.3125 105.570312 C 172.128906 105.832031 171.957031 106.105469 171.78125 106.375 C 171.4375 106.917969 171.109375 107.476562 170.792969 108.035156 C 170.484375 108.601562 170.1875 109.171875 169.910156 109.753906 C 169.636719 110.335938 169.367188 110.921875 169.128906 111.519531 C 168.894531 112.121094 168.667969 112.722656 168.46875 113.335938 C 168.371094 113.632812 168.265625 113.96875 168.175781 114.269531 L 168.050781 114.703125 L 168.011719 114.832031 L 167.980469 114.949219 L 167.921875 115.183594 C 167.753906 115.804688 167.605469 116.429688 167.484375 117.058594 C 167.359375 117.691406 167.253906 118.324219 167.171875 118.960938 C 167.085938 119.597656 167.019531 120.234375 166.976562 120.875 C 166.875 122.15625 166.875 123.433594 166.945312 124.71875 L 166.972656 125.1875 " fill-opacity="1" fill-rule="nonzero"/></g><path fill="#64dad5" d="M 187.90625 109.609375 C 188.332031 110.050781 188.777344 110.484375 189.214844 110.921875 C 189.433594 111.136719 189.648438 111.359375 189.871094 111.574219 L 190.539062 112.21875 L 191.199219 112.855469 C 191.414062 113.058594 191.625 113.265625 191.832031 113.480469 C 192.035156 113.695312 192.238281 113.914062 192.441406 114.136719 L 192.738281 114.472656 L 193.027344 114.820312 C 193.222656 115.050781 193.410156 115.285156 193.597656 115.527344 C 193.78125 115.769531 193.96875 116.011719 194.144531 116.261719 C 194.503906 116.761719 194.84375 117.273438 195.1875 117.804688 C 195.160156 117.648438 195.132812 117.492188 195.105469 117.339844 C 195.070312 117.1875 195.039062 117.03125 195 116.878906 C 194.925781 116.570312 194.847656 116.265625 194.75 115.960938 C 194.660156 115.660156 194.558594 115.359375 194.445312 115.058594 C 194.335938 114.761719 194.214844 114.464844 194.089844 114.171875 C 193.960938 113.875 193.824219 113.589844 193.679688 113.300781 C 193.535156 113.011719 193.386719 112.726562 193.222656 112.449219 C 193.0625 112.167969 192.894531 111.890625 192.71875 111.621094 L 192.585938 111.414062 L 192.457031 111.21875 L 192.199219 110.835938 L 191.683594 110.0625 C 191.511719 109.804688 191.335938 109.550781 191.160156 109.296875 C 190.808594 108.789062 190.464844 108.273438 190.101562 107.773438 L 189.566406 107.019531 C 189.390625 106.765625 189.210938 106.511719 189.03125 106.265625 C 188.667969 105.765625 188.304688 105.265625 187.941406 104.769531 L 186.6875 103.074219 L 185.253906 104.878906 C 184.761719 105.496094 184.273438 106.117188 183.792969 106.738281 C 183.308594 107.363281 182.828125 107.988281 182.355469 108.617188 C 181.878906 109.246094 181.410156 109.878906 180.941406 110.511719 L 180.679688 110.867188 L 180.570312 111.023438 L 180.234375 111.507812 L 180.148438 111.628906 L 180.058594 111.769531 L 179.875 112.054688 C 179.757812 112.246094 179.628906 112.441406 179.527344 112.628906 L 179.207031 113.191406 C 179.101562 113.378906 179.007812 113.574219 178.910156 113.769531 C 178.808594 113.960938 178.710938 114.152344 178.625 114.351562 L 178.355469 114.941406 C 178.027344 115.742188 177.726562 116.554688 177.492188 117.390625 C 177.425781 117.59375 177.382812 117.808594 177.324219 118.015625 C 177.273438 118.226562 177.21875 118.433594 177.175781 118.648438 L 177.046875 119.28125 C 177.007812 119.492188 176.976562 119.707031 176.941406 119.921875 L 176.894531 120.238281 L 176.855469 120.5625 C 176.832031 120.777344 176.800781 120.988281 176.785156 121.203125 C 176.753906 121.632812 176.71875 122.0625 176.714844 122.492188 C 176.695312 122.921875 176.714844 123.355469 176.71875 123.78125 C 176.730469 123.996094 176.746094 124.210938 176.757812 124.425781 C 176.769531 124.640625 176.789062 124.851562 176.8125 125.066406 C 176.894531 125.917969 177.042969 126.761719 177.234375 127.59375 L 177.386719 128.214844 L 177.566406 128.824219 C 177.625 129.03125 177.691406 129.230469 177.761719 129.433594 C 177.832031 129.632812 177.898438 129.832031 177.976562 130.03125 C 178.273438 130.824219 178.621094 131.59375 179.015625 132.335938 C 179.417969 133.074219 179.855469 133.789062 180.34375 134.464844 C 180.835938 135.136719 181.355469 135.78125 181.929688 136.375 C 182.207031 136.675781 182.507812 136.957031 182.804688 137.238281 C 183.105469 137.503906 183.398438 137.769531 183.699219 138.03125 C 184.300781 138.554688 184.910156 139.070312 185.539062 139.570312 C 185.160156 138.863281 184.761719 138.171875 184.351562 137.488281 C 184.152344 137.144531 183.9375 136.804688 183.734375 136.464844 C 183.546875 136.128906 183.335938 135.808594 183.164062 135.464844 C 183.074219 135.296875 182.980469 135.128906 182.894531 134.960938 L 182.640625 134.449219 C 182.550781 134.285156 182.480469 134.105469 182.402344 133.9375 C 182.328125 133.761719 182.242188 133.59375 182.171875 133.417969 L 181.957031 132.902344 C 181.886719 132.726562 181.828125 132.550781 181.761719 132.375 C 181.625 132.027344 181.515625 131.671875 181.398438 131.320312 C 181.292969 130.964844 181.183594 130.613281 181.097656 130.253906 C 181 129.902344 180.921875 129.542969 180.84375 129.183594 C 180.710938 128.464844 180.582031 127.746094 180.515625 127.023438 C 180.445312 126.300781 180.394531 125.582031 180.398438 124.863281 C 180.390625 124.503906 180.414062 124.144531 180.421875 123.785156 C 180.445312 123.425781 180.460938 123.070312 180.503906 122.714844 C 180.566406 122 180.679688 121.296875 180.816406 120.597656 C 180.949219 119.898438 181.144531 119.214844 181.347656 118.535156 L 181.511719 118.027344 C 181.566406 117.859375 181.632812 117.695312 181.691406 117.527344 C 181.804688 117.191406 181.953125 116.867188 182.082031 116.539062 C 182.367188 115.890625 182.675781 115.25 183.023438 114.632812 C 183.105469 114.472656 183.195312 114.335938 183.28125 114.191406 L 183.40625 113.972656 L 183.472656 113.863281 L 183.550781 113.742188 L 183.871094 113.246094 L 183.914062 113.183594 L 183.933594 113.152344 L 183.9375 113.144531 C 183.957031 113.117188 183.925781 113.160156 183.917969 113.167969 L 183.929688 113.15625 L 184.011719 113.03125 L 184.179688 112.789062 C 184.617188 112.132812 185.054688 111.480469 185.484375 110.820312 C 185.917969 110.160156 186.34375 109.5 186.765625 108.835938 C 186.816406 108.753906 186.867188 108.675781 186.917969 108.597656 C 187.03125 108.714844 187.144531 108.832031 187.257812 108.945312 L 187.90625 109.609375 " fill-opacity="1" fill-rule="nonzero"/><path fill="#c7b8ea" d="M 190.277344 137.097656 L 190.265625 137.195312 C 190.40625 136.628906 190.539062 136.058594 190.6875 135.496094 L 190.933594 134.660156 L 191.050781 134.242188 C 191.09375 134.105469 191.140625 133.96875 191.1875 133.832031 L 191.460938 133.011719 C 191.550781 132.738281 191.667969 132.472656 191.765625 132.203125 C 191.964844 131.664062 192.203125 131.144531 192.429688 130.621094 C 192.90625 129.585938 193.429688 128.578125 194.035156 127.625 C 194.632812 126.671875 195.289062 125.757812 196.011719 124.890625 C 196.367188 124.453125 196.75 124.035156 197.136719 123.609375 L 197.734375 122.972656 L 198.042969 122.648438 L 198.34375 122.339844 C 199.132812 121.535156 199.980469 120.777344 200.855469 120.066406 C 201.292969 119.707031 201.742188 119.363281 202.203125 119.035156 C 202.660156 118.707031 203.128906 118.390625 203.605469 118.09375 C 204.082031 117.789062 204.570312 117.503906 205.0625 117.230469 L 205.335938 117.074219 L 205.417969 117.03125 L 205.816406 116.820312 C 206.078125 116.6875 206.300781 116.570312 206.558594 116.445312 C 207.574219 115.953125 208.617188 115.527344 209.683594 115.15625 C 210.214844 114.96875 210.75 114.796875 211.292969 114.640625 C 211.832031 114.488281 212.378906 114.347656 212.929688 114.222656 C 213.207031 114.164062 213.480469 114.101562 213.757812 114.050781 L 214.175781 113.972656 L 214.621094 113.894531 L 216.402344 113.5625 L 219.964844 112.902344 L 223.519531 112.214844 L 225.300781 111.871094 L 227.078125 111.515625 C 228.261719 111.273438 229.445312 111.042969 230.628906 110.792969 L 232.253906 110.453125 L 232.210938 111.359375 L 232.140625 112.855469 L 232.078125 114.347656 L 232.019531 115.84375 C 231.996094 116.339844 231.984375 116.839844 231.964844 117.339844 C 231.933594 118.335938 231.894531 119.332031 231.871094 120.332031 C 231.847656 121.328125 231.816406 122.328125 231.800781 123.324219 L 231.773438 124.824219 L 231.753906 126.324219 L 231.738281 127.820312 L 231.734375 129.320312 C 231.734375 129.816406 231.722656 130.3125 231.703125 130.8125 C 231.683594 131.308594 231.652344 131.808594 231.613281 132.308594 C 231.761719 131.828125 231.894531 131.34375 232.011719 130.855469 C 232.132812 130.367188 232.230469 129.871094 232.324219 129.375 L 232.585938 127.898438 L 232.839844 126.421875 L 233.089844 124.941406 L 233.332031 123.464844 C 233.496094 122.476562 233.640625 121.492188 233.796875 120.503906 C 233.953125 119.519531 234.089844 118.53125 234.238281 117.542969 C 234.3125 117.050781 234.386719 116.558594 234.457031 116.0625 L 234.871094 113.101562 L 235.070312 111.617188 L 235.464844 108.652344 L 235.726562 106.6875 L 233.640625 106.972656 L 230.050781 107.46875 C 228.855469 107.632812 227.660156 107.816406 226.464844 107.988281 L 224.671875 108.25 L 222.882812 108.523438 L 219.300781 109.074219 L 213.933594 109.941406 L 213.488281 110.019531 L 213.015625 110.105469 C 212.699219 110.160156 212.382812 110.226562 212.066406 110.292969 C 211.4375 110.429688 210.8125 110.585938 210.191406 110.753906 C 209.574219 110.929688 208.957031 111.121094 208.347656 111.328125 C 207.132812 111.757812 205.941406 112.257812 204.789062 112.828125 C 204.503906 112.964844 204.191406 113.132812 203.914062 113.277344 L 203.515625 113.492188 L 203.398438 113.558594 L 203.082031 113.734375 C 202.523438 114.050781 201.976562 114.390625 201.441406 114.75 C 200.902344 115.105469 200.378906 115.476562 199.867188 115.863281 C 199.351562 116.25 198.847656 116.652344 198.359375 117.070312 C 198.113281 117.277344 197.875 117.492188 197.636719 117.703125 C 197.402344 117.925781 197.164062 118.140625 196.9375 118.367188 C 196.703125 118.589844 196.480469 118.820312 196.257812 119.050781 L 195.917969 119.40625 L 195.746094 119.585938 L 195.597656 119.753906 L 195.28125 120.105469 L 194.976562 120.449219 L 194.359375 121.160156 C 193.953125 121.640625 193.550781 122.140625 193.167969 122.660156 C 192.398438 123.691406 191.699219 124.78125 191.078125 125.910156 C 190.464844 127.046875 189.949219 128.226562 189.496094 129.417969 L 189.175781 130.320312 L 189.101562 130.542969 L 189.03125 130.773438 L 188.898438 131.230469 C 188.8125 131.535156 188.710938 131.835938 188.636719 132.144531 L 188.414062 133.0625 C 188.375 133.21875 188.335938 133.371094 188.300781 133.523438 L 188.210938 133.988281 L 188.03125 134.914062 C 187.929688 135.53125 187.851562 136.152344 187.761719 136.769531 L 187.75 136.851562 L 187.746094 136.867188 L 187.703125 137.960938 L 187.664062 139.054688 L 187.589844 141.246094 L 187.53125 143.4375 C 187.511719 144.167969 187.492188 144.898438 187.480469 145.628906 C 187.46875 146.359375 187.449219 147.089844 187.441406 147.820312 C 187.433594 148.550781 187.421875 149.28125 187.421875 150.015625 C 187.417969 150.746094 187.414062 151.476562 187.417969 152.210938 L 187.425781 153.308594 L 187.441406 154.40625 L 187.652344 153.328125 L 187.855469 152.25 C 187.992188 151.53125 188.121094 150.808594 188.246094 150.089844 C 188.375 149.367188 188.492188 148.648438 188.617188 147.925781 C 188.742188 147.207031 188.855469 146.484375 188.972656 145.761719 C 189.089844 145.039062 189.207031 144.320312 189.316406 143.597656 L 189.648438 141.429688 L 189.96875 139.265625 L 190.125 138.179688 L 190.277344 137.097656 " fill-opacity="1" fill-rule="nonzero"/><path fill="#64dad5" d="M 215.890625 123.679688 L 215.894531 123.675781 C 215.898438 123.675781 215.917969 123.671875 215.890625 123.679688 Z M 220.8125 131.148438 C 220.789062 131.472656 220.75 131.792969 220.714844 132.117188 C 220.679688 132.441406 220.632812 132.765625 220.582031 133.089844 L 220.503906 133.578125 L 220.414062 134.066406 C 220.351562 134.394531 220.28125 134.722656 220.210938 135.054688 L 220.101562 135.550781 C 220.058594 135.71875 220.023438 135.886719 219.984375 136.054688 C 220.097656 135.921875 220.214844 135.792969 220.320312 135.660156 C 220.429688 135.527344 220.539062 135.390625 220.640625 135.253906 C 220.742188 135.113281 220.847656 134.972656 220.945312 134.832031 L 221.234375 134.398438 C 221.421875 134.105469 221.597656 133.804688 221.769531 133.5 C 221.933594 133.191406 222.089844 132.878906 222.242188 132.5625 C 222.394531 132.246094 222.527344 131.917969 222.660156 131.589844 C 222.722656 131.425781 222.789062 131.261719 222.847656 131.09375 C 222.902344 130.925781 222.960938 130.761719 223.015625 130.589844 C 223.121094 130.253906 223.226562 129.910156 223.3125 129.566406 C 223.355469 129.394531 223.402344 129.21875 223.441406 129.046875 L 223.550781 128.523438 C 223.683594 127.867188 223.808594 127.207031 223.933594 126.546875 C 224.054688 125.886719 224.167969 125.226562 224.277344 124.566406 C 224.382812 123.902344 224.484375 123.242188 224.582031 122.578125 C 224.679688 121.917969 224.773438 121.253906 224.855469 120.589844 L 225.167969 118.183594 L 222.609375 118.519531 C 222.066406 118.59375 221.523438 118.671875 220.980469 118.75 C 220.4375 118.832031 219.894531 118.910156 219.355469 119 C 218.8125 119.082031 218.269531 119.175781 217.730469 119.265625 C 217.191406 119.359375 216.652344 119.457031 216.113281 119.554688 L 215.304688 119.707031 L 215.203125 119.726562 L 215.09375 119.746094 L 215.042969 119.757812 L 214.84375 119.800781 L 214.441406 119.894531 C 213.9375 119.992188 213.292969 120.195312 212.703125 120.367188 C 212.546875 120.410156 212.414062 120.46875 212.273438 120.519531 L 211.851562 120.675781 L 211.429688 120.835938 C 211.289062 120.886719 211.152344 120.957031 211.015625 121.015625 L 210.199219 121.386719 L 209.40625 121.808594 C 209.273438 121.878906 209.144531 121.945312 209.015625 122.023438 L 208.632812 122.257812 C 208.382812 122.417969 208.125 122.570312 207.882812 122.738281 C 207.398438 123.085938 206.914062 123.425781 206.464844 123.816406 C 206.003906 124.183594 205.582031 124.597656 205.160156 125.003906 C 204.953125 125.214844 204.757812 125.433594 204.558594 125.648438 L 204.265625 125.972656 C 204.171875 126.085938 204.082031 126.203125 203.988281 126.316406 C 203.808594 126.546875 203.628906 126.773438 203.453125 127.003906 C 203.285156 127.242188 203.121094 127.484375 202.960938 127.722656 C 202.792969 127.957031 202.648438 128.210938 202.503906 128.457031 L 202.289062 128.832031 L 202.183594 129.019531 L 202.085938 129.214844 C 201.953125 129.46875 201.832031 129.730469 201.710938 129.984375 C 201.585938 130.242188 201.492188 130.515625 201.386719 130.777344 C 201.332031 130.910156 201.28125 131.042969 201.234375 131.175781 C 201.183594 131.308594 201.144531 131.445312 201.101562 131.582031 C 201.023438 131.855469 200.945312 132.125 200.875 132.398438 C 201.070312 132.191406 201.261719 131.984375 201.445312 131.777344 C 201.539062 131.675781 201.628906 131.570312 201.726562 131.472656 C 201.824219 131.375 201.917969 131.273438 202.015625 131.175781 L 202.300781 130.878906 C 202.394531 130.78125 202.484375 130.679688 202.585938 130.589844 C 202.785156 130.398438 202.984375 130.214844 203.171875 130.027344 L 203.316406 129.886719 L 203.46875 129.753906 L 203.769531 129.488281 C 203.972656 129.3125 204.160156 129.128906 204.371094 128.96875 C 204.582031 128.800781 204.785156 128.636719 204.984375 128.46875 C 205.191406 128.308594 205.40625 128.15625 205.617188 128 L 205.929688 127.765625 L 206.253906 127.546875 C 206.46875 127.40625 206.675781 127.25 206.894531 127.113281 C 207.335938 126.847656 207.761719 126.566406 208.214844 126.328125 C 208.441406 126.210938 208.652344 126.070312 208.886719 125.964844 C 209.113281 125.855469 209.339844 125.742188 209.566406 125.625 C 209.792969 125.515625 210.027344 125.425781 210.253906 125.316406 L 210.597656 125.164062 C 210.714844 125.113281 210.832031 125.074219 210.949219 125.027344 L 211.648438 124.757812 L 212.359375 124.519531 C 212.476562 124.480469 212.59375 124.4375 212.714844 124.402344 L 213.074219 124.304688 C 213.3125 124.238281 213.554688 124.164062 213.785156 124.105469 C 214.257812 124.007812 214.660156 123.890625 215.238281 123.796875 L 215.644531 123.722656 L 215.847656 123.6875 L 215.851562 123.683594 L 215.863281 123.683594 L 215.890625 123.679688 L 215.992188 123.664062 L 216.804688 123.535156 C 217.34375 123.441406 217.882812 123.355469 218.425781 123.257812 C 218.964844 123.160156 219.503906 123.066406 220.042969 122.964844 C 220.335938 122.910156 220.625 122.855469 220.917969 122.796875 C 220.902344 123.285156 220.890625 123.769531 220.878906 124.257812 C 220.871094 124.929688 220.863281 125.597656 220.863281 126.269531 C 220.867188 126.941406 220.871094 127.613281 220.886719 128.285156 C 220.890625 128.605469 220.898438 128.917969 220.898438 129.234375 C 220.894531 129.550781 220.890625 129.871094 220.875 130.191406 C 220.859375 130.507812 220.835938 130.828125 220.8125 131.148438 " fill-opacity="1" fill-rule="nonzero"/><path fill="#64dad5" d="M 201.542969 158.980469 C 202.429688 158.371094 203.3125 157.761719 204.203125 157.175781 C 205.097656 156.59375 205.984375 156.011719 206.894531 155.464844 C 207.800781 154.921875 208.707031 154.386719 209.628906 153.898438 C 210.554688 153.410156 211.480469 152.945312 212.425781 152.535156 C 212.660156 152.429688 212.894531 152.328125 213.132812 152.234375 C 213.371094 152.132812 213.609375 152.042969 213.847656 151.953125 C 214.082031 151.859375 214.320312 151.777344 214.558594 151.6875 C 214.796875 151.605469 215.039062 151.519531 215.277344 151.445312 C 216.234375 151.132812 217.203125 150.894531 218.171875 150.714844 C 219.140625 150.542969 220.109375 150.441406 221.074219 150.433594 C 222.035156 150.429688 222.988281 150.488281 223.925781 150.65625 C 224.867188 150.820312 225.785156 151.078125 226.683594 151.40625 C 227.582031 151.734375 228.457031 152.15625 229.304688 152.636719 C 229.726562 152.878906 230.144531 153.136719 230.554688 153.410156 C 230.949219 153.671875 231.410156 154 231.847656 154.304688 L 234.511719 156.148438 C 234.714844 156.289062 234.917969 156.429688 235.121094 156.566406 C 234.710938 156.925781 234.300781 157.285156 233.890625 157.644531 L 233.097656 158.335938 L 231.527344 159.734375 L 231.132812 160.082031 L 231.035156 160.171875 L 231.011719 160.191406 L 231 160.203125 L 230.992188 160.207031 C 230.984375 160.214844 231.042969 160.167969 231.015625 160.191406 L 230.964844 160.234375 L 230.367188 160.746094 L 230.003906 161.027344 C 229.773438 161.222656 229.503906 161.410156 229.246094 161.601562 C 229.117188 161.699219 228.980469 161.785156 228.847656 161.875 C 228.714844 161.964844 228.582031 162.058594 228.445312 162.144531 L 228.035156 162.398438 L 227.828125 162.523438 L 227.617188 162.640625 L 227.191406 162.878906 L 226.761719 163.101562 C 226.476562 163.257812 226.179688 163.386719 225.882812 163.527344 C 225.738281 163.597656 225.585938 163.65625 225.433594 163.71875 C 225.285156 163.78125 225.136719 163.847656 224.984375 163.90625 C 224.675781 164.015625 224.371094 164.136719 224.0625 164.234375 L 223.59375 164.390625 L 223.121094 164.527344 C 222.808594 164.628906 222.488281 164.695312 222.167969 164.777344 C 221.523438 164.914062 220.875 165.046875 220.214844 165.128906 L 219.96875 165.160156 L 219.84375 165.175781 L 219.816406 165.179688 L 219.808594 165.179688 C 219.84375 165.179688 219.8125 165.179688 219.816406 165.179688 L 219.800781 165.183594 L 219.734375 165.1875 L 219.210938 165.234375 L 219.082031 165.246094 L 218.960938 165.253906 L 218.714844 165.269531 C 218.554688 165.273438 218.394531 165.292969 218.226562 165.292969 C 217.554688 165.324219 216.882812 165.304688 216.210938 165.269531 C 215.539062 165.222656 214.863281 165.160156 214.191406 165.046875 C 213.519531 164.941406 212.847656 164.8125 212.183594 164.632812 C 211.847656 164.554688 211.519531 164.453125 211.183594 164.355469 C 211.019531 164.308594 210.855469 164.246094 210.691406 164.195312 C 210.523438 164.144531 210.359375 164.089844 210.199219 164.027344 C 209.539062 163.796875 208.894531 163.523438 208.25 163.238281 L 208.667969 163.5625 L 208.878906 163.726562 L 209.097656 163.878906 L 209.53125 164.183594 L 209.984375 164.46875 C 210.132812 164.566406 210.285156 164.65625 210.441406 164.746094 C 210.597656 164.835938 210.75 164.925781 210.90625 165.011719 C 211.226562 165.175781 211.539062 165.347656 211.867188 165.5 C 212.515625 165.808594 213.191406 166.074219 213.875 166.3125 C 214.5625 166.546875 215.265625 166.738281 215.976562 166.90625 C 216.691406 167.050781 217.414062 167.179688 218.148438 167.257812 C 218.328125 167.28125 218.519531 167.296875 218.707031 167.308594 L 218.988281 167.332031 L 219.128906 167.339844 L 219.261719 167.347656 L 219.785156 167.367188 L 219.851562 167.371094 L 219.9375 167.371094 L 220.078125 167.375 L 220.355469 167.375 C 220.726562 167.378906 221.097656 167.363281 221.46875 167.347656 C 221.652344 167.34375 221.835938 167.320312 222.023438 167.308594 C 222.207031 167.289062 222.394531 167.277344 222.578125 167.253906 C 222.945312 167.207031 223.320312 167.171875 223.6875 167.101562 L 224.238281 167.007812 L 224.789062 166.894531 C 225.15625 166.820312 225.515625 166.714844 225.878906 166.621094 C 226.058594 166.574219 226.238281 166.515625 226.417969 166.460938 C 226.597656 166.402344 226.777344 166.355469 226.953125 166.289062 C 227.308594 166.164062 227.667969 166.046875 228.015625 165.902344 C 228.1875 165.832031 228.367188 165.761719 228.539062 165.6875 L 229.3125 165.335938 L 229.566406 165.207031 L 230.070312 164.953125 C 230.238281 164.863281 230.402344 164.769531 230.566406 164.675781 C 230.730469 164.582031 230.902344 164.496094 231.058594 164.394531 C 231.382812 164.191406 231.703125 164.003906 232.03125 163.773438 L 232.519531 163.4375 L 232.9375 163.121094 L 233.148438 162.964844 L 233.203125 162.925781 L 233.28125 162.859375 L 233.386719 162.78125 L 233.800781 162.457031 L 235.453125 161.160156 L 236.277344 160.507812 C 237.371094 159.628906 238.472656 158.761719 239.558594 157.882812 L 241.511719 156.304688 L 239.433594 154.785156 C 238.5625 154.148438 237.683594 153.515625 236.808594 152.886719 L 234.175781 151 C 233.328125 150.398438 232.332031 149.6875 231.304688 149.113281 C 230.273438 148.53125 229.1875 148.019531 228.050781 147.621094 C 226.917969 147.21875 225.738281 146.929688 224.546875 146.753906 C 223.347656 146.582031 222.136719 146.519531 220.941406 146.582031 C 219.746094 146.648438 218.566406 146.828125 217.417969 147.085938 C 216.269531 147.347656 215.160156 147.71875 214.085938 148.136719 C 213.011719 148.554688 211.980469 149.050781 210.980469 149.585938 C 209.984375 150.125 209.015625 150.699219 208.089844 151.324219 C 207.160156 151.945312 206.25 152.585938 205.378906 153.265625 C 204.503906 153.941406 203.648438 154.632812 202.820312 155.355469 C 201.992188 156.070312 201.179688 156.800781 200.382812 157.550781 C 199.585938 158.292969 198.8125 159.058594 198.039062 159.824219 C 197.273438 160.59375 196.511719 161.367188 195.761719 162.152344 C 195.011719 162.933594 194.265625 163.722656 193.523438 164.523438 C 194.441406 163.933594 195.339844 163.320312 196.230469 162.703125 C 197.125 162.085938 198.007812 161.460938 198.894531 160.839844 C 199.777344 160.214844 200.660156 159.59375 201.542969 158.980469 " fill-opacity="1" fill-rule="nonzero"/><g clip-path="url(#b936713c9a)"><path fill="#c7b8ea" d="M 255.644531 154.074219 L 252.6875 151.980469 C 251.707031 151.28125 250.710938 150.59375 249.726562 149.898438 L 246.757812 147.820312 C 245.769531 147.128906 244.777344 146.4375 243.785156 145.75 L 240.804688 143.6875 L 239.316406 142.660156 L 238.945312 142.402344 L 238.550781 142.136719 L 238.359375 142.007812 L 238.152344 141.875 C 238.011719 141.789062 237.871094 141.695312 237.734375 141.609375 C 237.191406 141.269531 236.632812 140.949219 236.070312 140.640625 C 235.507812 140.339844 234.933594 140.046875 234.351562 139.777344 C 233.191406 139.234375 232 138.757812 230.777344 138.367188 C 230.171875 138.171875 229.554688 137.992188 228.9375 137.835938 L 228.71875 137.777344 L 228.484375 137.71875 L 228.003906 137.605469 C 227.691406 137.539062 227.378906 137.46875 227.066406 137.410156 C 225.8125 137.164062 224.546875 136.996094 223.273438 136.914062 C 222.636719 136.867188 222 136.847656 221.363281 136.839844 C 220.726562 136.835938 220.09375 136.851562 219.457031 136.882812 L 218.980469 136.910156 L 218.53125 136.941406 C 218.226562 136.964844 217.910156 136.988281 217.597656 137.015625 C 216.972656 137.078125 216.34375 137.144531 215.714844 137.242188 C 214.453125 137.433594 213.203125 137.703125 211.984375 138.066406 C 210.761719 138.433594 209.582031 138.898438 208.429688 139.417969 L 207.578125 139.824219 L 207.367188 139.925781 L 207.160156 140.039062 L 206.746094 140.261719 C 206.472656 140.417969 206.191406 140.554688 205.921875 140.71875 L 205.121094 141.207031 C 204.988281 141.289062 204.851562 141.367188 204.722656 141.453125 L 204.332031 141.710938 L 203.558594 142.230469 C 203.300781 142.402344 203.054688 142.597656 202.804688 142.78125 L 202.058594 143.335938 L 202.011719 143.371094 L 202 143.378906 L 200.484375 144.765625 L 198.976562 146.160156 L 197.464844 147.554688 L 195.964844 148.953125 L 194.464844 150.359375 L 192.96875 151.773438 L 191.484375 153.195312 C 190.988281 153.667969 190.496094 154.144531 190.003906 154.625 C 190.5625 154.226562 191.121094 153.828125 191.675781 153.421875 L 193.339844 152.214844 L 194.996094 151 L 196.648438 149.777344 L 198.296875 148.546875 L 201.578125 146.078125 L 203.214844 144.832031 L 203.15625 144.878906 C 203.660156 144.574219 204.160156 144.257812 204.664062 143.960938 L 205.433594 143.53125 L 205.816406 143.320312 C 205.945312 143.25 206.078125 143.1875 206.207031 143.121094 L 206.988281 142.730469 C 207.25 142.597656 207.519531 142.488281 207.78125 142.367188 C 208.308594 142.125 208.851562 141.917969 209.386719 141.707031 C 210.472656 141.308594 211.570312 140.960938 212.6875 140.710938 C 213.800781 140.460938 214.925781 140.28125 216.066406 140.179688 C 216.636719 140.125 217.210938 140.097656 217.789062 140.078125 L 218.664062 140.058594 L 219.117188 140.050781 L 219.546875 140.046875 C 220.121094 140.046875 220.691406 140.058594 221.261719 140.09375 C 221.835938 140.125 222.402344 140.171875 222.96875 140.242188 C 223.535156 140.304688 224.101562 140.390625 224.660156 140.492188 C 225.222656 140.585938 225.78125 140.699219 226.335938 140.832031 C 226.613281 140.894531 226.886719 140.96875 227.164062 141.039062 L 227.5625 141.148438 L 227.761719 141.207031 L 227.980469 141.269531 C 228.53125 141.433594 229.066406 141.613281 229.597656 141.808594 C 230.664062 142.199219 231.710938 142.644531 232.722656 143.152344 C 233.230469 143.40625 233.726562 143.675781 234.21875 143.957031 C 234.707031 144.242188 235.1875 144.539062 235.660156 144.851562 C 235.78125 144.929688 235.886719 145.003906 236.003906 145.082031 L 236.171875 145.199219 L 236.355469 145.324219 L 237.074219 145.839844 L 241.492188 149.003906 C 242.472656 149.710938 243.457031 150.410156 244.441406 151.105469 L 247.398438 153.199219 C 248.386719 153.898438 249.367188 154.601562 250.359375 155.289062 L 251.179688 155.867188 L 250.308594 156.597656 L 247.4375 159.03125 L 244.566406 161.46875 L 238.847656 166.375 L 237.425781 167.605469 L 237.082031 167.902344 C 236.96875 168 236.855469 168.097656 236.742188 168.1875 C 236.511719 168.378906 236.285156 168.5625 236.050781 168.742188 C 235.117188 169.472656 234.132812 170.136719 233.121094 170.746094 C 232.609375 171.050781 232.097656 171.34375 231.566406 171.617188 C 231.304688 171.753906 231.039062 171.886719 230.769531 172.015625 L 230.367188 172.207031 L 229.972656 172.382812 C 229.414062 172.628906 228.871094 172.855469 228.308594 173.058594 C 227.75 173.269531 227.1875 173.464844 226.617188 173.636719 C 225.472656 173.988281 224.308594 174.269531 223.128906 174.476562 C 222.539062 174.582031 221.945312 174.667969 221.347656 174.742188 C 221.054688 174.773438 220.769531 174.808594 220.449219 174.832031 L 220.214844 174.851562 L 220 174.867188 L 219.550781 174.894531 C 218.347656 174.957031 217.136719 174.960938 215.929688 174.882812 C 214.722656 174.804688 213.515625 174.648438 212.320312 174.429688 C 212.019531 174.375 211.726562 174.3125 211.433594 174.253906 L 210.976562 174.148438 L 210.859375 174.121094 L 210.8125 174.109375 L 210.757812 174.097656 L 210.535156 174.039062 C 209.941406 173.890625 209.351562 173.726562 208.769531 173.542969 C 207.597656 173.183594 206.453125 172.734375 205.328125 172.234375 C 204.203125 171.726562 203.105469 171.148438 202.039062 170.511719 L 202.003906 170.488281 L 202 170.484375 L 200.882812 169.800781 L 198.570312 168.394531 L 197.410156 167.699219 C 197.757812 167.984375 198.101562 168.277344 198.453125 168.558594 L 199.503906 169.410156 L 200.558594 170.265625 L 201.085938 170.691406 L 201.617188 171.113281 L 201.652344 171.136719 L 201.65625 171.140625 L 201.621094 171.117188 C 202.125 171.507812 202.640625 171.886719 203.167969 172.246094 C 203.695312 172.605469 204.238281 172.945312 204.785156 173.273438 C 205.890625 173.925781 207.042969 174.5 208.226562 175.007812 C 208.820312 175.261719 209.421875 175.496094 210.035156 175.707031 L 210.261719 175.785156 L 210.320312 175.804688 L 210.382812 175.828125 L 210.496094 175.863281 L 210.945312 176.011719 C 211.257812 176.105469 211.574219 176.203125 211.886719 176.289062 C 213.132812 176.644531 214.40625 176.90625 215.695312 177.09375 C 216.984375 177.28125 218.289062 177.386719 219.597656 177.40625 L 220.085938 177.410156 L 220.34375 177.410156 L 220.578125 177.40625 C 220.742188 177.402344 220.886719 177.402344 221.058594 177.394531 L 221.558594 177.375 C 222.214844 177.34375 222.867188 177.292969 223.523438 177.222656 C 224.828125 177.070312 226.125 176.84375 227.40625 176.53125 C 228.046875 176.375 228.679688 176.195312 229.3125 176.003906 C 229.941406 175.808594 230.570312 175.582031 231.171875 175.351562 L 231.644531 175.167969 L 232.101562 174.976562 C 232.40625 174.847656 232.710938 174.71875 233.011719 174.578125 C 233.613281 174.304688 234.207031 174.003906 234.789062 173.691406 C 235.960938 173.066406 237.082031 172.351562 238.164062 171.578125 C 238.433594 171.386719 238.699219 171.1875 238.964844 170.988281 C 239.097656 170.886719 239.226562 170.78125 239.355469 170.679688 L 239.738281 170.378906 L 241.207031 169.199219 L 244.132812 166.824219 L 247.054688 164.449219 L 249.964844 162.0625 L 252.878906 159.671875 L 255.777344 157.269531 L 257.792969 155.59375 L 255.644531 154.074219 " fill-opacity="1" fill-rule="nonzero"/></g><path fill="#c7b8ea" d="M 137.386719 112.335938 L 137.652344 114.128906 C 137.828125 115.320312 138 116.519531 138.183594 117.710938 L 138.734375 121.292969 C 138.917969 122.488281 139.113281 123.679688 139.308594 124.871094 L 139.886719 128.445312 L 140.191406 130.230469 L 140.265625 130.679688 L 140.351562 131.144531 L 140.394531 131.371094 L 140.441406 131.613281 C 140.476562 131.773438 140.507812 131.941406 140.542969 132.097656 C 140.675781 132.730469 140.832031 133.351562 141.003906 133.972656 C 141.179688 134.59375 141.375 135.207031 141.589844 135.816406 C 142.019531 137.03125 142.519531 138.21875 143.089844 139.375 C 143.375 139.949219 143.675781 140.523438 144 141.074219 L 144.113281 141.269531 L 144.238281 141.480469 L 144.496094 141.90625 C 144.667969 142.175781 144.839844 142.449219 145.019531 142.714844 C 145.371094 143.253906 145.742188 143.777344 146.132812 144.292969 C 146.519531 144.804688 146.917969 145.308594 147.339844 145.792969 C 147.757812 146.28125 148.191406 146.753906 148.640625 147.214844 C 149.085938 147.675781 149.550781 148.121094 150.023438 148.550781 L 150.378906 148.871094 L 150.71875 149.171875 C 150.949219 149.375 151.191406 149.585938 151.429688 149.785156 C 151.917969 150.191406 152.414062 150.59375 152.933594 150.976562 C 153.964844 151.742188 155.046875 152.453125 156.183594 153.0625 C 157.316406 153.675781 158.492188 154.191406 159.683594 154.644531 L 160.585938 154.957031 L 160.8125 155.035156 L 161.039062 155.105469 L 161.496094 155.238281 C 161.800781 155.328125 162.101562 155.425781 162.410156 155.5 L 163.328125 155.726562 C 163.480469 155.761719 163.632812 155.804688 163.785156 155.835938 L 164.25 155.925781 L 165.175781 156.101562 C 165.792969 156.207031 166.414062 156.289062 167.03125 156.378906 L 167.109375 156.390625 L 167.125 156.390625 C 167.855469 156.425781 168.585938 156.449219 169.316406 156.476562 L 171.511719 156.550781 L 173.703125 156.613281 L 174.800781 156.644531 L 175.898438 156.667969 C 176.632812 156.683594 177.363281 156.699219 178.09375 156.707031 L 179.191406 156.722656 L 180.292969 156.734375 C 181.023438 156.742188 181.757812 156.746094 182.492188 156.746094 L 183.589844 156.742188 L 184.691406 156.726562 L 183.609375 156.519531 L 182.527344 156.316406 C 181.808594 156.1875 181.085938 156.058594 180.363281 155.933594 L 179.28125 155.746094 L 178.199219 155.566406 C 177.476562 155.445312 176.753906 155.328125 176.03125 155.214844 L 174.945312 155.039062 L 173.863281 154.871094 L 171.691406 154.542969 L 169.519531 154.222656 C 168.796875 154.117188 168.074219 154.011719 167.347656 153.914062 L 167.445312 153.925781 C 166.878906 153.785156 166.308594 153.65625 165.746094 153.503906 L 164.492188 153.140625 C 164.351562 153.101562 164.214844 153.050781 164.078125 153.003906 L 163.257812 152.730469 C 162.984375 152.644531 162.71875 152.527344 162.449219 152.425781 L 162.046875 152.273438 L 161.847656 152.195312 L 161.652344 152.109375 L 160.867188 151.761719 C 159.832031 151.285156 158.820312 150.761719 157.867188 150.160156 C 156.914062 149.550781 155.996094 148.902344 155.128906 148.175781 C 154.695312 147.816406 154.269531 147.4375 153.847656 147.046875 L 153.214844 146.449219 L 152.886719 146.136719 L 152.582031 145.839844 C 152.175781 145.441406 151.785156 145.035156 151.40625 144.613281 C 151.027344 144.195312 150.660156 143.765625 150.304688 143.320312 C 150.128906 143.101562 149.957031 142.875 149.78125 142.65625 C 149.613281 142.429688 149.441406 142.203125 149.28125 141.972656 C 148.949219 141.515625 148.632812 141.046875 148.335938 140.570312 C 148.183594 140.332031 148.039062 140.089844 147.890625 139.847656 L 147.6875 139.492188 L 147.585938 139.3125 L 147.476562 139.113281 C 147.203125 138.613281 146.945312 138.117188 146.695312 137.609375 C 146.203125 136.59375 145.773438 135.550781 145.40625 134.484375 C 145.042969 133.417969 144.730469 132.335938 144.484375 131.234375 C 144.453125 131.097656 144.429688 130.96875 144.398438 130.832031 L 144.355469 130.632812 L 144.316406 130.414062 L 144.234375 129.988281 L 144.15625 129.542969 L 143.839844 127.761719 L 143.183594 124.199219 C 142.960938 123.011719 142.746094 121.820312 142.515625 120.636719 L 141.828125 117.078125 C 141.601562 115.894531 141.355469 114.710938 141.121094 113.523438 L 140.824219 112.03125 C 141.25 112.054688 141.675781 112.082031 142.101562 112.101562 L 145.585938 112.273438 L 149.074219 112.425781 C 150.234375 112.476562 151.398438 112.511719 152.5625 112.554688 C 153.726562 112.597656 154.890625 112.625 156.054688 112.660156 L 157.800781 112.699219 L 159.546875 112.734375 C 160.121094 112.742188 160.691406 112.765625 161.265625 112.808594 C 161.835938 112.84375 162.410156 112.898438 162.984375 112.96875 C 163.554688 113.035156 164.128906 113.117188 164.699219 113.21875 C 165.273438 113.316406 165.84375 113.425781 166.414062 113.550781 C 165.882812 113.308594 165.339844 113.085938 164.789062 112.882812 C 164.238281 112.679688 163.679688 112.496094 163.113281 112.328125 C 162.550781 112.164062 161.976562 112.011719 161.402344 111.878906 C 160.824219 111.75 160.242188 111.636719 159.65625 111.539062 L 157.929688 111.261719 L 156.203125 110.988281 C 155.054688 110.8125 153.902344 110.632812 152.75 110.464844 C 151.597656 110.300781 150.449219 110.125 149.296875 109.96875 L 145.839844 109.492188 L 142.378906 109.039062 C 141.800781 108.960938 141.222656 108.894531 140.648438 108.820312 L 138.917969 108.609375 L 136.828125 108.347656 L 137.136719 110.539062 L 137.386719 112.335938 " fill-opacity="1" fill-rule="nonzero"/><path fill="#64dad5" d="M 165.765625 143.179688 C 165.589844 143.09375 165.414062 143.007812 165.242188 142.925781 C 165.0625 142.847656 164.894531 142.753906 164.722656 142.664062 C 164.550781 142.574219 164.378906 142.488281 164.214844 142.390625 C 163.539062 142.015625 162.898438 141.59375 162.269531 141.160156 C 161.644531 140.722656 161.058594 140.238281 160.488281 139.742188 L 160.066406 139.359375 L 159.660156 138.964844 C 159.519531 138.839844 159.390625 138.699219 159.261719 138.5625 C 159.132812 138.425781 159 138.292969 158.875 138.152344 L 158.5 137.730469 L 158.140625 137.296875 C 158.015625 137.152344 157.90625 137.003906 157.789062 136.855469 C 157.675781 136.707031 157.558594 136.5625 157.453125 136.40625 C 157.003906 135.804688 156.609375 135.167969 156.230469 134.523438 L 155.957031 134.035156 L 155.699219 133.535156 C 155.609375 133.371094 155.535156 133.199219 155.457031 133.03125 C 155.378906 132.863281 155.292969 132.695312 155.226562 132.523438 C 154.917969 131.84375 154.675781 131.132812 154.445312 130.421875 L 154.285156 129.886719 L 154.144531 129.34375 L 154.074219 129.070312 L 153.957031 128.523438 C 153.9375 128.429688 153.917969 128.34375 153.898438 128.238281 C 153.738281 127.425781 153.574219 126.613281 153.40625 125.800781 C 153.234375 124.988281 153.0625 124.175781 152.882812 123.367188 C 152.855469 123.230469 152.824219 123.097656 152.792969 122.960938 L 154.3125 122.980469 C 154.945312 122.996094 155.582031 122.988281 156.214844 122.988281 C 156.847656 122.992188 157.480469 122.980469 158.113281 122.972656 L 159.054688 122.960938 L 159.5 122.960938 L 159.957031 122.972656 C 160.257812 122.984375 160.566406 122.996094 160.871094 123.019531 C 161.175781 123.039062 161.484375 123.070312 161.789062 123.105469 C 162.097656 123.136719 162.40625 123.175781 162.710938 123.222656 C 163.019531 123.269531 163.328125 123.320312 163.636719 123.378906 C 164.257812 123.488281 164.875 123.632812 165.5 123.78125 L 165.105469 123.503906 C 164.972656 123.414062 164.835938 123.324219 164.703125 123.238281 C 164.425781 123.066406 164.148438 122.902344 163.863281 122.746094 C 163.578125 122.59375 163.289062 122.445312 162.992188 122.304688 C 162.699219 122.167969 162.398438 122.039062 162.09375 121.914062 C 161.792969 121.789062 161.484375 121.679688 161.171875 121.570312 C 160.859375 121.464844 160.542969 121.363281 160.226562 121.277344 L 159.746094 121.152344 L 159.25 121.035156 L 159.019531 120.984375 L 158.84375 120.945312 L 158.773438 120.933594 L 158.308594 120.839844 C 157.683594 120.722656 157.0625 120.59375 156.441406 120.484375 C 155.816406 120.375 155.195312 120.253906 154.570312 120.152344 L 152.699219 119.839844 C 152.074219 119.742188 151.449219 119.644531 150.824219 119.550781 L 148.753906 119.246094 L 149.015625 121.515625 C 149.109375 122.339844 149.207031 123.164062 149.3125 123.988281 C 149.417969 124.8125 149.527344 125.632812 149.644531 126.453125 C 149.757812 127.277344 149.878906 128.097656 150.003906 128.917969 C 150.015625 129.015625 150.039062 129.132812 150.058594 129.242188 L 150.117188 129.578125 L 150.179688 129.914062 L 150.25 130.246094 C 150.300781 130.46875 150.347656 130.691406 150.40625 130.914062 L 150.585938 131.570312 C 150.640625 131.792969 150.71875 132.007812 150.785156 132.226562 C 150.855469 132.441406 150.921875 132.660156 151.007812 132.871094 L 151.246094 133.511719 L 151.511719 134.140625 C 151.882812 134.972656 152.289062 135.792969 152.769531 136.566406 C 152.882812 136.765625 153.007812 136.953125 153.132812 137.144531 C 153.257812 137.335938 153.378906 137.527344 153.511719 137.710938 L 153.910156 138.265625 C 154.046875 138.445312 154.1875 138.625 154.328125 138.804688 C 154.902344 139.507812 155.507812 140.1875 156.167969 140.808594 C 156.824219 141.429688 157.511719 142.023438 158.246094 142.550781 C 158.421875 142.6875 158.613281 142.8125 158.796875 142.9375 C 158.984375 143.066406 159.167969 143.191406 159.363281 143.308594 C 159.554688 143.425781 159.742188 143.546875 159.9375 143.664062 L 160.523438 143.992188 C 160.71875 144.105469 160.921875 144.203125 161.121094 144.304688 C 161.320312 144.402344 161.519531 144.503906 161.726562 144.59375 C 161.929688 144.683594 162.132812 144.777344 162.339844 144.863281 L 162.964844 145.109375 C 163.800781 145.417969 164.644531 145.695312 165.511719 145.882812 C 166.375 146.078125 167.246094 146.222656 168.121094 146.292969 C 168.335938 146.316406 168.558594 146.332031 168.78125 146.339844 L 169.117188 146.355469 C 169.230469 146.359375 169.339844 146.363281 169.441406 146.359375 L 170.175781 146.359375 C 170.175781 146.359375 170.214844 146.363281 170.203125 146.359375 L 170.242188 146.359375 L 170.398438 146.351562 L 170.710938 146.339844 C 171.546875 146.3125 172.382812 146.273438 173.21875 146.222656 C 174.054688 146.175781 174.894531 146.113281 175.734375 146.023438 C 174.921875 145.789062 174.109375 145.578125 173.292969 145.378906 C 172.480469 145.179688 171.664062 144.992188 170.847656 144.8125 L 170.542969 144.746094 L 170.390625 144.714844 L 170.351562 144.703125 C 170.332031 144.703125 170.367188 144.707031 170.359375 144.703125 L 170.347656 144.703125 L 170.328125 144.699219 L 170.253906 144.679688 L 169.644531 144.539062 C 169.539062 144.519531 169.445312 144.492188 169.351562 144.464844 L 169.070312 144.382812 C 168.886719 144.332031 168.699219 144.28125 168.511719 144.21875 L 167.945312 144.042969 L 167.390625 143.84375 C 167.207031 143.78125 167.023438 143.703125 166.839844 143.632812 C 166.660156 143.5625 166.476562 143.496094 166.300781 143.414062 L 165.765625 143.179688 " fill-opacity="1" fill-rule="nonzero"/><g fill="#000000" fill-opacity="1"><g transform="translate(112.17577, 255.48265)"><g><path d="M 4.234375 -8.328125 L 5.109375 -8.328125 L 8.875 0 L 7.859375 0 L 6.90625 -2.1875 L 2.390625 -2.1875 L 1.421875 0 L 0.453125 0 Z M 6.53125 -3.03125 L 4.65625 -7.234375 L 2.765625 -3.03125 Z M 6.53125 -3.03125 "/></g></g></g><g fill="#000000" fill-opacity="1"><g transform="translate(123.647306, 255.48265)"><g><path d="M 4.953125 0.140625 C 4.347656 0.140625 3.796875 0.03125 3.296875 -0.1875 C 2.796875 -0.40625 2.359375 -0.707031 1.984375 -1.09375 C 1.609375 -1.476562 1.316406 -1.925781 1.109375 -2.4375 C 0.898438 -2.957031 0.796875 -3.515625 0.796875 -4.109375 L 0.796875 -4.140625 C 0.796875 -4.722656 0.898438 -5.269531 1.109375 -5.78125 C 1.316406 -6.300781 1.609375 -6.753906 1.984375 -7.140625 C 2.359375 -7.535156 2.800781 -7.84375 3.3125 -8.0625 C 3.820312 -8.289062 4.378906 -8.40625 4.984375 -8.40625 C 5.359375 -8.40625 5.695312 -8.375 6 -8.3125 C 6.3125 -8.25 6.59375 -8.160156 6.84375 -8.046875 C 7.101562 -7.929688 7.34375 -7.789062 7.5625 -7.625 C 7.789062 -7.46875 8.003906 -7.289062 8.203125 -7.09375 L 7.578125 -6.421875 C 7.222656 -6.742188 6.84375 -7.007812 6.4375 -7.21875 C 6.03125 -7.4375 5.539062 -7.546875 4.96875 -7.546875 C 4.507812 -7.546875 4.085938 -7.457031 3.703125 -7.28125 C 3.316406 -7.113281 2.976562 -6.875 2.6875 -6.5625 C 2.394531 -6.257812 2.164062 -5.898438 2 -5.484375 C 1.84375 -5.066406 1.765625 -4.625 1.765625 -4.15625 L 1.765625 -4.140625 C 1.765625 -3.648438 1.84375 -3.195312 2 -2.78125 C 2.164062 -2.375 2.394531 -2.015625 2.6875 -1.703125 C 2.976562 -1.398438 3.316406 -1.160156 3.703125 -0.984375 C 4.085938 -0.804688 4.507812 -0.71875 4.96875 -0.71875 C 5.539062 -0.71875 6.03125 -0.820312 6.4375 -1.03125 C 6.84375 -1.238281 7.242188 -1.53125 7.640625 -1.90625 L 8.25 -1.3125 C 8.039062 -1.09375 7.816406 -0.894531 7.578125 -0.71875 C 7.347656 -0.539062 7.097656 -0.390625 6.828125 -0.265625 C 6.566406 -0.140625 6.28125 -0.0390625 5.96875 0.03125 C 5.664062 0.101562 5.328125 0.140625 4.953125 0.140625 Z M 4.953125 0.140625 "/></g></g></g><g fill="#000000" fill-opacity="1"><g transform="translate(134.551846, 255.48265)"><g><path d="M 1.171875 -8.265625 L 7.140625 -8.265625 L 7.140625 -7.421875 L 2.109375 -7.421875 L 2.109375 -4.59375 L 6.609375 -4.59375 L 6.609375 -3.75 L 2.109375 -3.75 L 2.109375 -0.84375 L 7.203125 -0.84375 L 7.203125 0 L 1.171875 0 Z M 1.171875 -8.265625 "/></g></g></g><g fill="#000000" fill-opacity="1"><g transform="translate(144.605895, 255.48265)"><g><path d="M 1.25 -8.265625 L 2.1875 -8.265625 L 2.1875 0 L 1.25 0 Z M 1.25 -8.265625 "/></g></g></g><g fill="#000000" fill-opacity="1"><g transform="translate(150.183026, 255.48265)"><g><path d="M 3.3125 -7.40625 L 0.53125 -7.40625 L 0.53125 -8.265625 L 7.046875 -8.265625 L 7.046875 -7.40625 L 4.25 -7.40625 L 4.25 0 L 3.3125 0 Z M 3.3125 -7.40625 "/></g></g></g><g fill="#000000" fill-opacity="1"><g transform="translate(159.894508, 255.48265)"><g><path d="M 1.171875 -8.265625 L 7.140625 -8.265625 L 7.140625 -7.421875 L 2.109375 -7.421875 L 2.109375 -4.59375 L 6.609375 -4.59375 L 6.609375 -3.75 L 2.109375 -3.75 L 2.109375 -0.84375 L 7.203125 -0.84375 L 7.203125 0 L 1.171875 0 Z M 1.171875 -8.265625 "/></g></g></g><g fill="#000000" fill-opacity="1"><g transform="translate(169.948557, 255.48265)"><g><path d="M 4 0.125 C 3.34375 0.125 2.738281 0.015625 2.1875 -0.203125 C 1.644531 -0.421875 1.125 -0.753906 0.625 -1.203125 L 1.203125 -1.890625 C 1.640625 -1.492188 2.078125 -1.195312 2.515625 -1 C 2.953125 -0.8125 3.460938 -0.71875 4.046875 -0.71875 C 4.597656 -0.71875 5.039062 -0.847656 5.375 -1.109375 C 5.707031 -1.378906 5.875 -1.71875 5.875 -2.125 L 5.875 -2.15625 C 5.875 -2.34375 5.84375 -2.507812 5.78125 -2.65625 C 5.71875 -2.8125 5.609375 -2.953125 5.453125 -3.078125 C 5.296875 -3.203125 5.078125 -3.316406 4.796875 -3.421875 C 4.515625 -3.523438 4.160156 -3.625 3.734375 -3.71875 C 3.265625 -3.820312 2.851562 -3.941406 2.5 -4.078125 C 2.144531 -4.210938 1.851562 -4.375 1.625 -4.5625 C 1.394531 -4.75 1.222656 -4.96875 1.109375 -5.21875 C 1.003906 -5.46875 0.953125 -5.765625 0.953125 -6.109375 L 0.953125 -6.125 C 0.953125 -6.445312 1.019531 -6.742188 1.15625 -7.015625 C 1.289062 -7.296875 1.476562 -7.535156 1.71875 -7.734375 C 1.96875 -7.941406 2.253906 -8.101562 2.578125 -8.21875 C 2.910156 -8.332031 3.273438 -8.390625 3.671875 -8.390625 C 4.273438 -8.390625 4.800781 -8.300781 5.25 -8.125 C 5.707031 -7.957031 6.148438 -7.707031 6.578125 -7.375 L 6.03125 -6.65625 C 5.644531 -6.96875 5.253906 -7.191406 4.859375 -7.328125 C 4.472656 -7.472656 4.070312 -7.546875 3.65625 -7.546875 C 3.101562 -7.546875 2.671875 -7.414062 2.359375 -7.15625 C 2.046875 -6.90625 1.890625 -6.59375 1.890625 -6.21875 L 1.890625 -6.1875 C 1.890625 -5.988281 1.921875 -5.8125 1.984375 -5.65625 C 2.046875 -5.507812 2.160156 -5.367188 2.328125 -5.234375 C 2.492188 -5.109375 2.722656 -4.988281 3.015625 -4.875 C 3.304688 -4.769531 3.679688 -4.671875 4.140625 -4.578125 C 5.054688 -4.378906 5.734375 -4.097656 6.171875 -3.734375 C 6.609375 -3.367188 6.828125 -2.875 6.828125 -2.25 L 6.828125 -2.21875 C 6.828125 -1.863281 6.753906 -1.539062 6.609375 -1.25 C 6.472656 -0.96875 6.28125 -0.722656 6.03125 -0.515625 C 5.78125 -0.316406 5.484375 -0.160156 5.140625 -0.046875 C 4.796875 0.0664062 4.414062 0.125 4 0.125 Z M 4 0.125 "/></g></g></g><g fill="#000000" fill-opacity="1"><g transform="translate(179.648231, 255.48265)"><g/></g></g><g fill="#000000" fill-opacity="1"><g transform="translate(185.33167, 255.48265)"><g><path d="M 1.171875 -8.265625 L 2.046875 -8.265625 L 7.25 -1.640625 L 7.25 -8.265625 L 8.15625 -8.265625 L 8.15625 0 L 7.421875 0 L 2.078125 -6.78125 L 2.078125 0 L 1.171875 0 Z M 1.171875 -8.265625 "/></g></g></g><g fill="#000000" fill-opacity="1"><g transform="translate(196.803209, 255.48265)"><g><path d="M 4.234375 -8.328125 L 5.109375 -8.328125 L 8.875 0 L 7.859375 0 L 6.90625 -2.1875 L 2.390625 -2.1875 L 1.421875 0 L 0.453125 0 Z M 6.53125 -3.03125 L 4.65625 -7.234375 L 2.765625 -3.03125 Z M 6.53125 -3.03125 "/></g></g></g><g fill="#000000" fill-opacity="1"><g transform="translate(208.274743, 255.48265)"><g><path d="M 3.3125 -7.40625 L 0.53125 -7.40625 L 0.53125 -8.265625 L 7.046875 -8.265625 L 7.046875 -7.40625 L 4.25 -7.40625 L 4.25 0 L 3.3125 0 Z M 3.3125 -7.40625 "/></g></g></g><g fill="#000000" fill-opacity="1"><g transform="translate(217.986222, 255.48265)"><g><path d="M 4.484375 0.125 C 3.960938 0.125 3.488281 0.0507812 3.0625 -0.09375 C 2.644531 -0.25 2.285156 -0.476562 1.984375 -0.78125 C 1.679688 -1.082031 1.445312 -1.457031 1.28125 -1.90625 C 1.125 -2.363281 1.046875 -2.882812 1.046875 -3.46875 L 1.046875 -8.265625 L 1.96875 -8.265625 L 1.96875 -3.515625 C 1.96875 -2.617188 2.191406 -1.929688 2.640625 -1.453125 C 3.085938 -0.972656 3.707031 -0.734375 4.5 -0.734375 C 5.257812 -0.734375 5.863281 -0.960938 6.3125 -1.421875 C 6.769531 -1.878906 7 -2.5625 7 -3.46875 L 7 -8.265625 L 7.921875 -8.265625 L 7.921875 -3.53125 C 7.921875 -2.925781 7.835938 -2.394531 7.671875 -1.9375 C 7.515625 -1.476562 7.28125 -1.09375 6.96875 -0.78125 C 6.664062 -0.476562 6.300781 -0.25 5.875 -0.09375 C 5.457031 0.0507812 4.992188 0.125 4.484375 0.125 Z M 4.484375 0.125 "/></g></g></g><g fill="#000000" fill-opacity="1"><g transform="translate(229.091568, 255.48265)"><g><path d="M 1.171875 -8.265625 L 4.71875 -8.265625 C 5.238281 -8.265625 5.695312 -8.191406 6.09375 -8.046875 C 6.488281 -7.898438 6.816406 -7.695312 7.078125 -7.4375 C 7.273438 -7.238281 7.429688 -7 7.546875 -6.71875 C 7.660156 -6.445312 7.71875 -6.144531 7.71875 -5.8125 L 7.71875 -5.78125 C 7.71875 -5.4375 7.660156 -5.128906 7.546875 -4.859375 C 7.429688 -4.585938 7.273438 -4.347656 7.078125 -4.140625 C 6.878906 -3.941406 6.640625 -3.78125 6.359375 -3.65625 C 6.085938 -3.53125 5.789062 -3.4375 5.46875 -3.375 L 8.015625 0 L 6.859375 0 L 4.46875 -3.21875 L 2.109375 -3.21875 L 2.109375 0 L 1.171875 0 Z M 4.640625 -4.046875 C 4.953125 -4.046875 5.234375 -4.082031 5.484375 -4.15625 C 5.742188 -4.238281 5.96875 -4.351562 6.15625 -4.5 C 6.351562 -4.644531 6.503906 -4.820312 6.609375 -5.03125 C 6.710938 -5.238281 6.765625 -5.476562 6.765625 -5.75 L 6.765625 -5.78125 C 6.765625 -6.289062 6.578125 -6.6875 6.203125 -6.96875 C 5.835938 -7.257812 5.320312 -7.40625 4.65625 -7.40625 L 2.109375 -7.40625 L 2.109375 -4.046875 Z M 4.640625 -4.046875 "/></g></g></g><g fill="#000000" fill-opacity="1"><g transform="translate(239.771674, 255.48265)"><g><path d="M 4.234375 -8.328125 L 5.109375 -8.328125 L 8.875 0 L 7.859375 0 L 6.90625 -2.1875 L 2.390625 -2.1875 L 1.421875 0 L 0.453125 0 Z M 6.53125 -3.03125 L 4.65625 -7.234375 L 2.765625 -3.03125 Z M 6.53125 -3.03125 "/></g></g></g><g fill="#000000" fill-opacity="1"><g transform="translate(251.243208, 255.48265)"><g><path d="M 1.171875 -8.265625 L 2.109375 -8.265625 L 2.109375 -0.859375 L 6.75 -0.859375 L 6.75 0 L 1.171875 0 Z M 1.171875 -8.265625 "/></g></g></g><g fill="#000000" fill-opacity="1"><g transform="translate(260.647561, 255.48265)"><g><path d="M 1.171875 -8.265625 L 7.140625 -8.265625 L 7.140625 -7.421875 L 2.109375 -7.421875 L 2.109375 -4.59375 L 6.609375 -4.59375 L 6.609375 -3.75 L 2.109375 -3.75 L 2.109375 -0.84375 L 7.203125 -0.84375 L 7.203125 0 L 1.171875 0 Z M 1.171875 -8.265625 "/></g></g></g><g fill="#000000" fill-opacity="1"><g transform="translate(270.701607, 255.48265)"><g><path d="M 4 0.125 C 3.34375 0.125 2.738281 0.015625 2.1875 -0.203125 C 1.644531 -0.421875 1.125 -0.753906 0.625 -1.203125 L 1.203125 -1.890625 C 1.640625 -1.492188 2.078125 -1.195312 2.515625 -1 C 2.953125 -0.8125 3.460938 -0.71875 4.046875 -0.71875 C 4.597656 -0.71875 5.039062 -0.847656 5.375 -1.109375 C 5.707031 -1.378906 5.875 -1.71875 5.875 -2.125 L 5.875 -2.15625 C 5.875 -2.34375 5.84375 -2.507812 5.78125 -2.65625 C 5.71875 -2.8125 5.609375 -2.953125 5.453125 -3.078125 C 5.296875 -3.203125 5.078125 -3.316406 4.796875 -3.421875 C 4.515625 -3.523438 4.160156 -3.625 3.734375 -3.71875 C 3.265625 -3.820312 2.851562 -3.941406 2.5 -4.078125 C 2.144531 -4.210938 1.851562 -4.375 1.625 -4.5625 C 1.394531 -4.75 1.222656 -4.96875 1.109375 -5.21875 C 1.003906 -5.46875 0.953125 -5.765625 0.953125 -6.109375 L 0.953125 -6.125 C 0.953125 -6.445312 1.019531 -6.742188 1.15625 -7.015625 C 1.289062 -7.296875 1.476562 -7.535156 1.71875 -7.734375 C 1.96875 -7.941406 2.253906 -8.101562 2.578125 -8.21875 C 2.910156 -8.332031 3.273438 -8.390625 3.671875 -8.390625 C 4.273438 -8.390625 4.800781 -8.300781 5.25 -8.125 C 5.707031 -7.957031 6.148438 -7.707031 6.578125 -7.375 L 6.03125 -6.65625 C 5.644531 -6.96875 5.253906 -7.191406 4.859375 -7.328125 C 4.472656 -7.472656 4.070312 -7.546875 3.65625 -7.546875 C 3.101562 -7.546875 2.671875 -7.414062 2.359375 -7.15625 C 2.046875 -6.90625 1.890625 -6.59375 1.890625 -6.21875 L 1.890625 -6.1875 C 1.890625 -5.988281 1.921875 -5.8125 1.984375 -5.65625 C 2.046875 -5.507812 2.160156 -5.367188 2.328125 -5.234375 C 2.492188 -5.109375 2.722656 -4.988281 3.015625 -4.875 C 3.304688 -4.769531 3.679688 -4.671875 4.140625 -4.578125 C 5.054688 -4.378906 5.734375 -4.097656 6.171875 -3.734375 C 6.609375 -3.367188 6.828125 -2.875 6.828125 -2.25 L 6.828125 -2.21875 C 6.828125 -1.863281 6.753906 -1.539062 6.609375 -1.25 C 6.472656 -0.96875 6.28125 -0.722656 6.03125 -0.515625 C 5.78125 -0.316406 5.484375 -0.160156 5.140625 -0.046875 C 4.796875 0.0664062 4.414062 0.125 4 0.125 Z M 4 0.125 "/></g></g></g><g fill="#000000" fill-opacity="1"><g transform="translate(38.022349, 227.799751)"><g><path d="M 2.84375 0 L 2.84375 -35.53125 L 27.46875 -35.53125 L 27.46875 -32.375 C 26.726562 -32.601562 25.773438 -32.835938 24.609375 -33.078125 C 23.453125 -33.316406 22.164062 -33.539062 20.75 -33.75 C 19.332031 -33.96875 17.847656 -34.148438 16.296875 -34.296875 C 14.742188 -34.453125 13.21875 -34.578125 11.71875 -34.671875 C 10.226562 -34.773438 8.832031 -34.828125 7.53125 -34.828125 C 6.894531 -34.828125 6.421875 -34.664062 6.109375 -34.34375 C 5.804688 -34.019531 5.65625 -33.375 5.65625 -32.40625 L 5.65625 -21.171875 C 5.65625 -20.648438 5.816406 -20.222656 6.140625 -19.890625 C 6.472656 -19.566406 6.898438 -19.40625 7.421875 -19.40625 L 23.984375 -19.40625 L 23.984375 -16.421875 C 22.941406 -16.679688 21.6875 -16.929688 20.21875 -17.171875 C 18.75 -17.421875 17.21875 -17.648438 15.625 -17.859375 C 14.039062 -18.078125 12.53125 -18.242188 11.09375 -18.359375 C 9.664062 -18.484375 8.457031 -18.546875 7.46875 -18.546875 C 6.945312 -18.546875 6.519531 -18.421875 6.1875 -18.171875 C 5.851562 -17.921875 5.6875 -17.523438 5.6875 -16.984375 L 5.65625 -3.125 C 5.65625 -2.175781 5.804688 -1.535156 6.109375 -1.203125 C 6.421875 -0.867188 6.894531 -0.703125 7.53125 -0.703125 C 8.832031 -0.703125 10.226562 -0.75 11.71875 -0.84375 C 13.21875 -0.945312 14.742188 -1.070312 16.296875 -1.21875 C 17.847656 -1.375 19.332031 -1.554688 20.75 -1.765625 C 22.164062 -1.984375 23.453125 -2.210938 24.609375 -2.453125 C 25.773438 -2.691406 26.726562 -2.925781 27.46875 -3.15625 L 27.46875 0 Z M 2.84375 0 "/></g></g></g><g fill="#000000" fill-opacity="1"><g transform="translate(65.669774, 227.799751)"><g><path d="M 1.921875 -4.4375 C 1.921875 -4.84375 2.054688 -5.179688 2.328125 -5.453125 C 2.597656 -5.722656 2.9375 -5.859375 3.34375 -5.859375 C 3.769531 -5.859375 4.144531 -5.660156 4.46875 -5.265625 C 4.800781 -4.878906 5.148438 -4.394531 5.515625 -3.8125 C 5.890625 -3.238281 6.335938 -2.65625 6.859375 -2.0625 C 7.378906 -1.46875 8.039062 -0.972656 8.84375 -0.578125 C 9.65625 -0.191406 10.675781 0 11.90625 0 C 13.039062 0 14.101562 -0.179688 15.09375 -0.546875 C 16.09375 -0.910156 16.957031 -1.394531 17.6875 -2 C 18.425781 -2.601562 19.003906 -3.253906 19.421875 -3.953125 C 19.835938 -4.660156 20.046875 -5.34375 20.046875 -6 C 20.046875 -7.09375 19.796875 -7.984375 19.296875 -8.671875 C 18.796875 -9.359375 18.117188 -9.894531 17.265625 -10.28125 C 16.410156 -10.675781 15.457031 -11 14.40625 -11.25 C 13.351562 -11.5 12.269531 -11.722656 11.15625 -11.921875 C 10.039062 -12.117188 8.957031 -12.363281 7.90625 -12.65625 C 6.851562 -12.957031 5.898438 -13.347656 5.046875 -13.828125 C 4.191406 -14.316406 3.515625 -14.96875 3.015625 -15.78125 C 2.523438 -16.601562 2.28125 -17.65625 2.28125 -18.9375 C 2.28125 -20.125 2.632812 -21.195312 3.34375 -22.15625 C 4.050781 -23.113281 5.082031 -23.875 6.4375 -24.4375 C 7.800781 -25.007812 9.484375 -25.296875 11.484375 -25.296875 C 14.460938 -25.296875 16.703125 -25.015625 18.203125 -24.453125 C 19.710938 -23.898438 20.46875 -23.140625 20.46875 -22.171875 C 20.46875 -21.910156 20.332031 -21.65625 20.0625 -21.40625 C 19.789062 -21.15625 19.472656 -21.03125 19.109375 -21.03125 C 18.566406 -21.03125 18.046875 -21.21875 17.546875 -21.59375 C 17.054688 -21.976562 16.523438 -22.425781 15.953125 -22.9375 C 15.378906 -23.445312 14.738281 -23.890625 14.03125 -24.265625 C 13.320312 -24.648438 12.484375 -24.84375 11.515625 -24.84375 C 10.210938 -24.84375 9.082031 -24.578125 8.125 -24.046875 C 7.164062 -23.523438 6.414062 -22.863281 5.875 -22.0625 C 5.34375 -21.257812 5.078125 -20.421875 5.078125 -19.546875 C 5.078125 -18.472656 5.382812 -17.632812 6 -17.03125 C 6.613281 -16.425781 7.425781 -15.957031 8.4375 -15.625 C 9.445312 -15.300781 10.554688 -15.023438 11.765625 -14.796875 C 12.972656 -14.578125 14.179688 -14.320312 15.390625 -14.03125 C 16.597656 -13.75 17.703125 -13.351562 18.703125 -12.84375 C 19.710938 -12.332031 20.523438 -11.625 21.140625 -10.71875 C 21.753906 -9.820312 22.0625 -8.640625 22.0625 -7.171875 C 22.0625 -5.492188 21.59375 -4.0625 20.65625 -2.875 C 19.726562 -1.6875 18.46875 -0.789062 16.875 -0.1875 C 15.289062 0.40625 13.503906 0.703125 11.515625 0.703125 C 10.253906 0.703125 9.050781 0.546875 7.90625 0.234375 C 6.757812 -0.0664062 5.734375 -0.46875 4.828125 -0.96875 C 3.929688 -1.476562 3.222656 -2.035156 2.703125 -2.640625 C 2.179688 -3.242188 1.921875 -3.84375 1.921875 -4.4375 Z M 1.921875 -4.4375 "/></g></g></g><g fill="#000000" fill-opacity="1"><g transform="translate(87.453624, 227.799751)"><g><path d="M 14 0.703125 C 11.632812 0.703125 9.53125 0.171875 7.6875 -0.890625 C 5.851562 -1.953125 4.410156 -3.457031 3.359375 -5.40625 C 2.304688 -7.363281 1.78125 -9.679688 1.78125 -12.359375 C 1.78125 -14.140625 2.125 -15.804688 2.8125 -17.359375 C 3.5 -18.910156 4.4375 -20.28125 5.625 -21.46875 C 6.820312 -22.664062 8.207031 -23.601562 9.78125 -24.28125 C 11.363281 -24.957031 13.054688 -25.296875 14.859375 -25.296875 C 16.085938 -25.296875 17.289062 -25.113281 18.46875 -24.75 C 19.65625 -24.382812 20.640625 -23.816406 21.421875 -23.046875 C 22.203125 -22.273438 22.59375 -21.285156 22.59375 -20.078125 C 22.59375 -18.773438 22.191406 -17.570312 21.390625 -16.46875 C 20.585938 -15.363281 19.492188 -14.398438 18.109375 -13.578125 C 16.722656 -12.765625 15.15625 -12.132812 13.40625 -11.6875 C 11.664062 -11.238281 9.847656 -11.015625 7.953125 -11.015625 C 7.722656 -11.015625 7.503906 -11.015625 7.296875 -11.015625 C 7.097656 -11.015625 6.90625 -11.015625 6.71875 -11.015625 C 6.164062 -11.035156 5.75 -10.890625 5.46875 -10.578125 C 5.1875 -10.273438 5.09375 -9.875 5.1875 -9.375 C 5.757812 -6.5625 6.875 -4.351562 8.53125 -2.75 C 10.1875 -1.15625 12.28125 -0.359375 14.8125 -0.359375 C 16.78125 -0.359375 18.40625 -0.847656 19.6875 -1.828125 C 20.96875 -2.804688 21.898438 -3.960938 22.484375 -5.296875 L 23.234375 -4.875 C 22.429688 -3.164062 21.289062 -1.804688 19.8125 -0.796875 C 18.332031 0.203125 16.394531 0.703125 14 0.703125 Z M 4.828125 -13.4375 C 4.804688 -13.03125 4.921875 -12.65625 5.171875 -12.3125 C 5.421875 -11.96875 5.734375 -11.769531 6.109375 -11.71875 C 6.367188 -11.695312 6.644531 -11.664062 6.9375 -11.625 C 7.238281 -11.59375 7.566406 -11.578125 7.921875 -11.578125 C 8.847656 -11.578125 9.847656 -11.703125 10.921875 -11.953125 C 12.003906 -12.203125 13.0625 -12.5625 14.09375 -13.03125 C 15.125 -13.507812 16.0625 -14.085938 16.90625 -14.765625 C 17.757812 -15.441406 18.441406 -16.203125 18.953125 -17.046875 C 19.460938 -17.898438 19.71875 -18.828125 19.71875 -19.828125 C 19.71875 -20.847656 19.476562 -21.710938 19 -22.421875 C 18.53125 -23.128906 17.914062 -23.664062 17.15625 -24.03125 C 16.40625 -24.40625 15.585938 -24.59375 14.703125 -24.59375 C 13.171875 -24.59375 11.800781 -24.273438 10.59375 -23.640625 C 9.382812 -23.015625 8.359375 -22.175781 7.515625 -21.125 C 6.671875 -20.070312 6.023438 -18.878906 5.578125 -17.546875 C 5.128906 -16.222656 4.878906 -14.851562 4.828125 -13.4375 Z M 4.828125 -13.4375 "/></g></g></g><g fill="#000000" fill-opacity="1"><g transform="translate(109.983743, 227.799751)"><g><path d="M 2.484375 0 L 2.484375 -24.59375 L 5.328125 -24.59375 L 5.328125 -21.953125 C 5.328125 -21.359375 5.4375 -21.0625 5.65625 -21.0625 C 5.789062 -21.0625 6.050781 -21.226562 6.4375 -21.5625 C 7.707031 -22.800781 9.066406 -23.734375 10.515625 -24.359375 C 11.960938 -24.984375 13.609375 -25.296875 15.453125 -25.296875 C 17.253906 -25.296875 18.835938 -24.945312 20.203125 -24.25 C 21.566406 -23.550781 22.628906 -22.582031 23.390625 -21.34375 C 24.160156 -20.113281 24.546875 -18.695312 24.546875 -17.09375 L 24.546875 0 L 21.703125 0 L 21.703125 -17.015625 C 21.703125 -18.703125 21.382812 -20.097656 20.75 -21.203125 C 20.113281 -22.316406 19.273438 -23.160156 18.234375 -23.734375 C 17.191406 -24.304688 16.078125 -24.59375 14.890625 -24.59375 C 13.703125 -24.59375 12.539062 -24.363281 11.40625 -23.90625 C 10.269531 -23.457031 9.242188 -22.847656 8.328125 -22.078125 C 7.421875 -21.304688 6.691406 -20.4375 6.140625 -19.46875 C 5.597656 -18.5 5.328125 -17.492188 5.328125 -16.453125 L 5.328125 0 Z M 2.484375 0 "/></g></g></g><g fill="#000000" fill-opacity="1"><g transform="translate(135.072525, 227.799751)"><g><path d="M 1.78125 -12.296875 C 1.78125 -14.898438 2.28125 -17.175781 3.28125 -19.125 C 4.289062 -21.082031 5.703125 -22.597656 7.515625 -23.671875 C 9.328125 -24.753906 11.429688 -25.296875 13.828125 -25.296875 C 14.867188 -25.296875 15.914062 -25.15625 16.96875 -24.875 C 18.019531 -24.59375 18.984375 -24.207031 19.859375 -23.71875 C 20.734375 -23.226562 21.441406 -22.65625 21.984375 -22 C 22.535156 -21.351562 22.8125 -20.664062 22.8125 -19.9375 C 22.8125 -19.53125 22.703125 -19.179688 22.484375 -18.890625 C 22.273438 -18.609375 21.992188 -18.46875 21.640625 -18.46875 C 21.066406 -18.46875 20.601562 -18.675781 20.25 -19.09375 C 19.894531 -19.507812 19.5625 -20.019531 19.25 -20.625 C 18.945312 -21.226562 18.585938 -21.832031 18.171875 -22.4375 C 17.753906 -23.039062 17.207031 -23.550781 16.53125 -23.96875 C 15.863281 -24.382812 14.972656 -24.59375 13.859375 -24.59375 C 12.035156 -24.59375 10.4375 -24.085938 9.0625 -23.078125 C 7.6875 -22.066406 6.617188 -20.644531 5.859375 -18.8125 C 5.097656 -16.976562 4.71875 -14.828125 4.71875 -12.359375 C 4.71875 -9.898438 5.097656 -7.742188 5.859375 -5.890625 C 6.617188 -4.046875 7.6875 -2.613281 9.0625 -1.59375 C 10.4375 -0.582031 12.035156 -0.078125 13.859375 -0.078125 C 15.066406 -0.078125 16.226562 -0.300781 17.34375 -0.75 C 18.457031 -1.195312 19.460938 -1.796875 20.359375 -2.546875 C 21.253906 -3.304688 21.953125 -4.160156 22.453125 -5.109375 L 23.0625 -4.875 C 22.09375 -3.070312 20.820312 -1.691406 19.25 -0.734375 C 17.6875 0.222656 15.878906 0.703125 13.828125 0.703125 C 11.429688 0.703125 9.328125 0.164062 7.515625 -0.90625 C 5.703125 -1.976562 4.289062 -3.492188 3.28125 -5.453125 C 2.28125 -7.410156 1.78125 -9.691406 1.78125 -12.296875 Z M 1.78125 -12.296875 "/></g></g></g><g fill="#000000" fill-opacity="1"><g transform="translate(157.851413, 227.799751)"><g><path d="M 5.1875 0 L 2.34375 0 L 2.34375 -24.59375 L 5.1875 -24.59375 Z M 0.46875 -30.234375 C 0.34375 -30.285156 0.28125 -30.335938 0.28125 -30.390625 C 0.28125 -30.453125 0.34375 -30.492188 0.46875 -30.515625 C 1.125 -30.734375 1.640625 -30.953125 2.015625 -31.171875 C 2.398438 -31.398438 2.707031 -31.726562 2.9375 -32.15625 C 3.175781 -32.582031 3.40625 -33.175781 3.625 -33.9375 C 3.664062 -34.050781 3.734375 -34.109375 3.828125 -34.109375 C 3.929688 -34.109375 3.992188 -34.050781 4.015625 -33.9375 C 4.222656 -33.175781 4.445312 -32.582031 4.6875 -32.15625 C 4.925781 -31.726562 5.234375 -31.394531 5.609375 -31.15625 C 5.992188 -30.925781 6.515625 -30.710938 7.171875 -30.515625 C 7.296875 -30.492188 7.359375 -30.453125 7.359375 -30.390625 C 7.359375 -30.335938 7.296875 -30.285156 7.171875 -30.234375 C 6.535156 -30.023438 6.007812 -29.804688 5.59375 -29.578125 C 5.175781 -29.359375 4.847656 -29.039062 4.609375 -28.625 C 4.378906 -28.207031 4.179688 -27.597656 4.015625 -26.796875 C 3.992188 -26.703125 3.925781 -26.65625 3.8125 -26.65625 C 3.707031 -26.65625 3.644531 -26.703125 3.625 -26.796875 C 3.40625 -27.597656 3.175781 -28.207031 2.9375 -28.625 C 2.707031 -29.039062 2.398438 -29.359375 2.015625 -29.578125 C 1.640625 -29.804688 1.125 -30.023438 0.46875 -30.234375 Z M 0.46875 -30.234375 "/></g></g></g><g fill="#000000" fill-opacity="1"><g transform="translate(163.537106, 227.799751)"><g><path d="M 1.890625 -5.6875 C 1.890625 -7.34375 2.226562 -8.722656 2.90625 -9.828125 C 3.59375 -10.929688 4.5 -11.832031 5.625 -12.53125 C 6.75 -13.226562 7.976562 -13.78125 9.3125 -14.1875 C 10.65625 -14.601562 11.992188 -14.941406 13.328125 -15.203125 C 14.671875 -15.460938 15.90625 -15.722656 17.03125 -15.984375 C 18.15625 -16.242188 19.0625 -16.5625 19.75 -16.9375 C 20.4375 -17.320312 20.78125 -17.832031 20.78125 -18.46875 C 20.78125 -19.875 20.5 -20.984375 19.9375 -21.796875 C 19.382812 -22.617188 18.707031 -23.222656 17.90625 -23.609375 C 17.101562 -24.003906 16.289062 -24.265625 15.46875 -24.390625 C 14.65625 -24.523438 14 -24.59375 13.5 -24.59375 C 12.125 -24.59375 11.039062 -24.382812 10.25 -23.96875 C 9.457031 -23.550781 8.832031 -23.039062 8.375 -22.4375 C 7.925781 -21.832031 7.5625 -21.226562 7.28125 -20.625 C 7 -20.019531 6.691406 -19.507812 6.359375 -19.09375 C 6.023438 -18.675781 5.578125 -18.46875 5.015625 -18.46875 C 4.660156 -18.46875 4.375 -18.609375 4.15625 -18.890625 C 3.945312 -19.179688 3.84375 -19.53125 3.84375 -19.9375 C 3.84375 -20.664062 4.113281 -21.351562 4.65625 -22 C 5.195312 -22.65625 5.90625 -23.226562 6.78125 -23.71875 C 7.65625 -24.207031 8.625 -24.59375 9.6875 -24.875 C 10.757812 -25.15625 11.804688 -25.296875 12.828125 -25.296875 C 15.148438 -25.296875 17.113281 -24.898438 18.71875 -24.109375 C 20.332031 -23.316406 21.550781 -22.257812 22.375 -20.9375 C 23.207031 -19.625 23.625 -18.203125 23.625 -16.671875 L 23.625 0 L 20.78125 0 L 20.78125 -3.203125 C 20.78125 -3.835938 20.613281 -4.15625 20.28125 -4.15625 C 20.019531 -4.15625 19.75 -4.023438 19.46875 -3.765625 C 18.59375 -3.035156 17.640625 -2.328125 16.609375 -1.640625 C 15.578125 -0.953125 14.488281 -0.390625 13.34375 0.046875 C 12.195312 0.484375 10.992188 0.703125 9.734375 0.703125 C 8.171875 0.703125 6.796875 0.429688 5.609375 -0.109375 C 4.429688 -0.648438 3.515625 -1.40625 2.859375 -2.375 C 2.210938 -3.351562 1.890625 -4.457031 1.890625 -5.6875 Z M 12.96875 -14.53125 C 11.476562 -14.269531 10.132812 -13.753906 8.9375 -12.984375 C 7.738281 -12.210938 6.796875 -11.257812 6.109375 -10.125 C 5.421875 -8.988281 5.078125 -7.722656 5.078125 -6.328125 C 5.078125 -5.023438 5.359375 -3.957031 5.921875 -3.125 C 6.492188 -2.300781 7.234375 -1.6875 8.140625 -1.28125 C 9.054688 -0.875 10.015625 -0.671875 11.015625 -0.671875 C 12.203125 -0.671875 13.328125 -0.875 14.390625 -1.28125 C 15.453125 -1.6875 16.4375 -2.21875 17.34375 -2.875 C 18.257812 -3.539062 19.050781 -4.253906 19.71875 -5.015625 C 20.050781 -5.367188 20.3125 -5.835938 20.5 -6.421875 C 20.6875 -7.015625 20.78125 -7.609375 20.78125 -8.203125 L 20.78125 -14.5625 C 20.78125 -15.082031 20.628906 -15.445312 20.328125 -15.65625 C 20.035156 -15.875 19.628906 -15.914062 19.109375 -15.78125 C 18.191406 -15.519531 17.234375 -15.300781 16.234375 -15.125 C 15.242188 -14.945312 14.15625 -14.75 12.96875 -14.53125 Z M 12.96875 -14.53125 "/></g></g></g><g fill="#000000" fill-opacity="1"><g transform="translate(187.701927, 227.799751)"><g/></g></g><g fill="#000000" fill-opacity="1"><g transform="translate(196.408247, 227.799751)"><g><path d="M 1.78125 -13.046875 C 1.78125 -15.359375 2.179688 -17.4375 2.984375 -19.28125 C 3.785156 -21.132812 4.960938 -22.597656 6.515625 -23.671875 C 8.066406 -24.753906 9.957031 -25.296875 12.1875 -25.296875 C 14.125 -25.296875 15.671875 -25.035156 16.828125 -24.515625 C 17.992188 -23.992188 18.851562 -23.460938 19.40625 -22.921875 C 19.96875 -22.347656 20.414062 -22.0625 20.75 -22.0625 C 21.175781 -22.0625 21.390625 -22.582031 21.390625 -23.625 L 21.390625 -36.234375 L 24.015625 -36.234375 L 24.015625 0 L 12.6875 0 C 10.832031 0 9.21875 -0.382812 7.84375 -1.15625 C 6.476562 -1.925781 5.34375 -2.945312 4.4375 -4.21875 C 3.539062 -5.5 2.875 -6.910156 2.4375 -8.453125 C 2 -9.992188 1.78125 -11.523438 1.78125 -13.046875 Z M 4.65625 -13 C 4.65625 -11.4375 4.851562 -9.925781 5.25 -8.46875 C 5.65625 -7.007812 6.285156 -5.691406 7.140625 -4.515625 C 7.992188 -3.347656 9.085938 -2.421875 10.421875 -1.734375 C 11.765625 -1.046875 13.375 -0.703125 15.25 -0.703125 L 19.328125 -0.703125 C 19.867188 -0.703125 20.300781 -0.867188 20.625 -1.203125 C 20.945312 -1.535156 21.109375 -1.960938 21.109375 -2.484375 L 21.109375 -18.015625 C 21.109375 -18.796875 21.015625 -19.410156 20.828125 -19.859375 C 20.460938 -20.691406 19.894531 -21.453125 19.125 -22.140625 C 18.363281 -22.828125 17.460938 -23.375 16.421875 -23.78125 C 15.378906 -24.195312 14.265625 -24.40625 13.078125 -24.40625 C 11.847656 -24.40625 10.71875 -24.097656 9.6875 -23.484375 C 8.65625 -22.867188 7.765625 -22.019531 7.015625 -20.9375 C 6.265625 -19.863281 5.679688 -18.644531 5.265625 -17.28125 C 4.859375 -15.925781 4.65625 -14.5 4.65625 -13 Z M 4.65625 -13 "/></g></g></g><g fill="#000000" fill-opacity="1"><g transform="translate(220.963972, 227.799751)"><g><path d="M 14 0.703125 C 11.632812 0.703125 9.53125 0.171875 7.6875 -0.890625 C 5.851562 -1.953125 4.410156 -3.457031 3.359375 -5.40625 C 2.304688 -7.363281 1.78125 -9.679688 1.78125 -12.359375 C 1.78125 -14.140625 2.125 -15.804688 2.8125 -17.359375 C 3.5 -18.910156 4.4375 -20.28125 5.625 -21.46875 C 6.820312 -22.664062 8.207031 -23.601562 9.78125 -24.28125 C 11.363281 -24.957031 13.054688 -25.296875 14.859375 -25.296875 C 16.085938 -25.296875 17.289062 -25.113281 18.46875 -24.75 C 19.65625 -24.382812 20.640625 -23.816406 21.421875 -23.046875 C 22.203125 -22.273438 22.59375 -21.285156 22.59375 -20.078125 C 22.59375 -18.773438 22.191406 -17.570312 21.390625 -16.46875 C 20.585938 -15.363281 19.492188 -14.398438 18.109375 -13.578125 C 16.722656 -12.765625 15.15625 -12.132812 13.40625 -11.6875 C 11.664062 -11.238281 9.847656 -11.015625 7.953125 -11.015625 C 7.722656 -11.015625 7.503906 -11.015625 7.296875 -11.015625 C 7.097656 -11.015625 6.90625 -11.015625 6.71875 -11.015625 C 6.164062 -11.035156 5.75 -10.890625 5.46875 -10.578125 C 5.1875 -10.273438 5.09375 -9.875 5.1875 -9.375 C 5.757812 -6.5625 6.875 -4.351562 8.53125 -2.75 C 10.1875 -1.15625 12.28125 -0.359375 14.8125 -0.359375 C 16.78125 -0.359375 18.40625 -0.847656 19.6875 -1.828125 C 20.96875 -2.804688 21.898438 -3.960938 22.484375 -5.296875 L 23.234375 -4.875 C 22.429688 -3.164062 21.289062 -1.804688 19.8125 -0.796875 C 18.332031 0.203125 16.394531 0.703125 14 0.703125 Z M 4.828125 -13.4375 C 4.804688 -13.03125 4.921875 -12.65625 5.171875 -12.3125 C 5.421875 -11.96875 5.734375 -11.769531 6.109375 -11.71875 C 6.367188 -11.695312 6.644531 -11.664062 6.9375 -11.625 C 7.238281 -11.59375 7.566406 -11.578125 7.921875 -11.578125 C 8.847656 -11.578125 9.847656 -11.703125 10.921875 -11.953125 C 12.003906 -12.203125 13.0625 -12.5625 14.09375 -13.03125 C 15.125 -13.507812 16.0625 -14.085938 16.90625 -14.765625 C 17.757812 -15.441406 18.441406 -16.203125 18.953125 -17.046875 C 19.460938 -17.898438 19.71875 -18.828125 19.71875 -19.828125 C 19.71875 -20.847656 19.476562 -21.710938 19 -22.421875 C 18.53125 -23.128906 17.914062 -23.664062 17.15625 -24.03125 C 16.40625 -24.40625 15.585938 -24.59375 14.703125 -24.59375 C 13.171875 -24.59375 11.800781 -24.273438 10.59375 -23.640625 C 9.382812 -23.015625 8.359375 -22.175781 7.515625 -21.125 C 6.671875 -20.070312 6.023438 -18.878906 5.578125 -17.546875 C 5.128906 -16.222656 4.878906 -14.851562 4.828125 -13.4375 Z M 4.828125 -13.4375 "/></g></g></g><g fill="#000000" fill-opacity="1"><g transform="translate(243.494087, 227.799751)"><g/></g></g><g fill="#000000" fill-opacity="1"><g transform="translate(252.200396, 227.799751)"><g><path d="M 0 -35.53125 L 3.125 -35.53125 L 16.984375 -4.40625 C 17.191406 -3.90625 17.414062 -3.65625 17.65625 -3.65625 C 17.914062 -3.65625 18.128906 -3.941406 18.296875 -4.515625 L 27.21875 -35.53125 L 30.34375 -35.53125 L 17.765625 0 L 15.84375 0 Z M 0 -35.53125 "/></g></g></g><g fill="#000000" fill-opacity="1"><g transform="translate(280.594086, 227.799751)"><g><path d="M 5.1875 0 L 2.34375 0 L 2.34375 -24.59375 L 5.1875 -24.59375 Z M 0.46875 -30.234375 C 0.34375 -30.285156 0.28125 -30.335938 0.28125 -30.390625 C 0.28125 -30.453125 0.34375 -30.492188 0.46875 -30.515625 C 1.125 -30.734375 1.640625 -30.953125 2.015625 -31.171875 C 2.398438 -31.398438 2.707031 -31.726562 2.9375 -32.15625 C 3.175781 -32.582031 3.40625 -33.175781 3.625 -33.9375 C 3.664062 -34.050781 3.734375 -34.109375 3.828125 -34.109375 C 3.929688 -34.109375 3.992188 -34.050781 4.015625 -33.9375 C 4.222656 -33.175781 4.445312 -32.582031 4.6875 -32.15625 C 4.925781 -31.726562 5.234375 -31.394531 5.609375 -31.15625 C 5.992188 -30.925781 6.515625 -30.710938 7.171875 -30.515625 C 7.296875 -30.492188 7.359375 -30.453125 7.359375 -30.390625 C 7.359375 -30.335938 7.296875 -30.285156 7.171875 -30.234375 C 6.535156 -30.023438 6.007812 -29.804688 5.59375 -29.578125 C 5.175781 -29.359375 4.847656 -29.039062 4.609375 -28.625 C 4.378906 -28.207031 4.179688 -27.597656 4.015625 -26.796875 C 3.992188 -26.703125 3.925781 -26.65625 3.8125 -26.65625 C 3.707031 -26.65625 3.644531 -26.703125 3.625 -26.796875 C 3.40625 -27.597656 3.175781 -28.207031 2.9375 -28.625 C 2.707031 -29.039062 2.398438 -29.359375 2.015625 -29.578125 C 1.640625 -29.804688 1.125 -30.023438 0.46875 -30.234375 Z M 0.46875 -30.234375 "/></g></g></g><g fill="#000000" fill-opacity="1"><g transform="translate(286.279779, 227.799751)"><g><path d="M 1.78125 -13.046875 C 1.78125 -15.359375 2.179688 -17.4375 2.984375 -19.28125 C 3.785156 -21.132812 4.960938 -22.597656 6.515625 -23.671875 C 8.066406 -24.753906 9.957031 -25.296875 12.1875 -25.296875 C 14.125 -25.296875 15.671875 -25.035156 16.828125 -24.515625 C 17.992188 -23.992188 18.851562 -23.460938 19.40625 -22.921875 C 19.96875 -22.347656 20.414062 -22.0625 20.75 -22.0625 C 21.175781 -22.0625 21.390625 -22.582031 21.390625 -23.625 L 21.390625 -36.234375 L 24.015625 -36.234375 L 24.015625 0 L 12.6875 0 C 10.832031 0 9.21875 -0.382812 7.84375 -1.15625 C 6.476562 -1.925781 5.34375 -2.945312 4.4375 -4.21875 C 3.539062 -5.5 2.875 -6.910156 2.4375 -8.453125 C 2 -9.992188 1.78125 -11.523438 1.78125 -13.046875 Z M 4.65625 -13 C 4.65625 -11.4375 4.851562 -9.925781 5.25 -8.46875 C 5.65625 -7.007812 6.285156 -5.691406 7.140625 -4.515625 C 7.992188 -3.347656 9.085938 -2.421875 10.421875 -1.734375 C 11.765625 -1.046875 13.375 -0.703125 15.25 -0.703125 L 19.328125 -0.703125 C 19.867188 -0.703125 20.300781 -0.867188 20.625 -1.203125 C 20.945312 -1.535156 21.109375 -1.960938 21.109375 -2.484375 L 21.109375 -18.015625 C 21.109375 -18.796875 21.015625 -19.410156 20.828125 -19.859375 C 20.460938 -20.691406 19.894531 -21.453125 19.125 -22.140625 C 18.363281 -22.828125 17.460938 -23.375 16.421875 -23.78125 C 15.378906 -24.195312 14.265625 -24.40625 13.078125 -24.40625 C 11.847656 -24.40625 10.71875 -24.097656 9.6875 -23.484375 C 8.65625 -22.867188 7.765625 -22.019531 7.015625 -20.9375 C 6.265625 -19.863281 5.679688 -18.644531 5.265625 -17.28125 C 4.859375 -15.925781 4.65625 -14.5 4.65625 -13 Z M 4.65625 -13 "/></g></g></g><g fill="#000000" fill-opacity="1"><g transform="translate(310.835494, 227.799751)"><g><path d="M 1.890625 -5.6875 C 1.890625 -7.34375 2.226562 -8.722656 2.90625 -9.828125 C 3.59375 -10.929688 4.5 -11.832031 5.625 -12.53125 C 6.75 -13.226562 7.976562 -13.78125 9.3125 -14.1875 C 10.65625 -14.601562 11.992188 -14.941406 13.328125 -15.203125 C 14.671875 -15.460938 15.90625 -15.722656 17.03125 -15.984375 C 18.15625 -16.242188 19.0625 -16.5625 19.75 -16.9375 C 20.4375 -17.320312 20.78125 -17.832031 20.78125 -18.46875 C 20.78125 -19.875 20.5 -20.984375 19.9375 -21.796875 C 19.382812 -22.617188 18.707031 -23.222656 17.90625 -23.609375 C 17.101562 -24.003906 16.289062 -24.265625 15.46875 -24.390625 C 14.65625 -24.523438 14 -24.59375 13.5 -24.59375 C 12.125 -24.59375 11.039062 -24.382812 10.25 -23.96875 C 9.457031 -23.550781 8.832031 -23.039062 8.375 -22.4375 C 7.925781 -21.832031 7.5625 -21.226562 7.28125 -20.625 C 7 -20.019531 6.691406 -19.507812 6.359375 -19.09375 C 6.023438 -18.675781 5.578125 -18.46875 5.015625 -18.46875 C 4.660156 -18.46875 4.375 -18.609375 4.15625 -18.890625 C 3.945312 -19.179688 3.84375 -19.53125 3.84375 -19.9375 C 3.84375 -20.664062 4.113281 -21.351562 4.65625 -22 C 5.195312 -22.65625 5.90625 -23.226562 6.78125 -23.71875 C 7.65625 -24.207031 8.625 -24.59375 9.6875 -24.875 C 10.757812 -25.15625 11.804688 -25.296875 12.828125 -25.296875 C 15.148438 -25.296875 17.113281 -24.898438 18.71875 -24.109375 C 20.332031 -23.316406 21.550781 -22.257812 22.375 -20.9375 C 23.207031 -19.625 23.625 -18.203125 23.625 -16.671875 L 23.625 0 L 20.78125 0 L 20.78125 -3.203125 C 20.78125 -3.835938 20.613281 -4.15625 20.28125 -4.15625 C 20.019531 -4.15625 19.75 -4.023438 19.46875 -3.765625 C 18.59375 -3.035156 17.640625 -2.328125 16.609375 -1.640625 C 15.578125 -0.953125 14.488281 -0.390625 13.34375 0.046875 C 12.195312 0.484375 10.992188 0.703125 9.734375 0.703125 C 8.171875 0.703125 6.796875 0.429688 5.609375 -0.109375 C 4.429688 -0.648438 3.515625 -1.40625 2.859375 -2.375 C 2.210938 -3.351562 1.890625 -4.457031 1.890625 -5.6875 Z M 12.96875 -14.53125 C 11.476562 -14.269531 10.132812 -13.753906 8.9375 -12.984375 C 7.738281 -12.210938 6.796875 -11.257812 6.109375 -10.125 C 5.421875 -8.988281 5.078125 -7.722656 5.078125 -6.328125 C 5.078125 -5.023438 5.359375 -3.957031 5.921875 -3.125 C 6.492188 -2.300781 7.234375 -1.6875 8.140625 -1.28125 C 9.054688 -0.875 10.015625 -0.671875 11.015625 -0.671875 C 12.203125 -0.671875 13.328125 -0.875 14.390625 -1.28125 C 15.453125 -1.6875 16.4375 -2.21875 17.34375 -2.875 C 18.257812 -3.539062 19.050781 -4.253906 19.71875 -5.015625 C 20.050781 -5.367188 20.3125 -5.835938 20.5 -6.421875 C 20.6875 -7.015625 20.78125 -7.609375 20.78125 -8.203125 L 20.78125 -14.5625 C 20.78125 -15.082031 20.628906 -15.445312 20.328125 -15.65625 C 20.035156 -15.875 19.628906 -15.914062 19.109375 -15.78125 C 18.191406 -15.519531 17.234375 -15.300781 16.234375 -15.125 C 15.242188 -14.945312 14.15625 -14.75 12.96875 -14.53125 Z M 12.96875 -14.53125 "/></g></g></g><path stroke-linecap="butt" transform="matrix(0.75, -0.000000000000000093, 0.000000000000000093, 0.75, 48.032207, 235.589896)" fill="none" stroke-linejoin="miter" d="M -0.00127593 1.499931 L 371.915415 1.499931 " stroke="#c7b8ea" stroke-width="3" stroke-opacity="1" stroke-miterlimit="4"/></svg>