<svg xmlns="http://www.w3.org/2000/svg" xmlns:xlink="http://www.w3.org/1999/xlink" width="100" height="100" viewBox="0 0 375 375" preserveAspectRatio="xMidYMid meet" version="1.0"><defs><clipPath id="0a54b047a5"><path d="M 75.3125 153.394531 L 177.796875 153.394531 L 177.796875 208.414062 L 75.3125 208.414062 Z M 75.3125 153.394531 " clip-rule="nonzero"/></clipPath><clipPath id="1a1101358b"><path d="M 150 72.203125 L 205 72.203125 L 205 169 L 150 169 Z M 150 72.203125 " clip-rule="nonzero"/></clipPath><clipPath id="30905753c8"><path d="M 184.832031 147.261719 L 286.769531 147.261719 L 286.769531 208.414062 L 184.832031 208.414062 Z M 184.832031 147.261719 " clip-rule="nonzero"/></clipPath></defs><path fill="#64dad5" d="M 111.210938 174.6875 C 111.535156 174.367188 111.851562 174.035156 112.171875 173.710938 L 113.125 172.730469 C 113.445312 172.40625 113.761719 172.066406 114.070312 171.742188 C 114.371094 171.425781 114.675781 171.113281 114.992188 170.808594 C 115.304688 170.5 115.621094 170.195312 115.949219 169.902344 C 116.277344 169.601562 116.613281 169.316406 116.949219 169.023438 C 117.289062 168.734375 117.636719 168.453125 117.992188 168.179688 C 118.34375 167.898438 118.699219 167.625 119.066406 167.359375 C 119.429688 167.089844 119.800781 166.828125 120.179688 166.570312 C 120.554688 166.3125 120.9375 166.058594 121.324219 165.800781 L 120.644531 165.941406 C 120.421875 165.992188 120.191406 166.042969 119.96875 166.101562 C 119.519531 166.21875 119.070312 166.347656 118.625 166.492188 C 118.183594 166.636719 117.742188 166.796875 117.300781 166.960938 C 116.867188 167.132812 116.433594 167.316406 116.003906 167.507812 C 115.570312 167.699219 115.148438 167.90625 114.726562 168.125 C 114.308594 168.34375 113.890625 168.570312 113.480469 168.8125 C 113.070312 169.054688 112.667969 169.308594 112.269531 169.570312 C 111.878906 169.824219 111.5 170.066406 111.121094 170.324219 L 109.984375 171.089844 C 109.605469 171.34375 109.222656 171.59375 108.851562 171.855469 L 106.605469 173.414062 L 104.378906 174.996094 C 104.007812 175.257812 103.640625 175.527344 103.273438 175.792969 L 102.171875 176.597656 L 99.683594 178.414062 L 102.332031 180.53125 C 103.308594 181.3125 104.289062 182.085938 105.273438 182.855469 C 106.257812 183.621094 107.25 184.378906 108.242188 185.136719 C 109.238281 185.886719 110.234375 186.640625 111.238281 187.378906 L 112.050781 187.957031 L 112.433594 188.226562 L 112.878906 188.515625 C 113.179688 188.703125 113.484375 188.902344 113.785156 189.082031 L 114.675781 189.59375 C 115.875 190.25 117.109375 190.859375 118.390625 191.351562 C 118.707031 191.484375 119.03125 191.59375 119.355469 191.710938 C 119.675781 191.820312 120 191.945312 120.328125 192.039062 L 121.3125 192.34375 L 122.304688 192.601562 C 123.636719 192.921875 124.984375 193.183594 126.34375 193.324219 C 127.703125 193.464844 129.070312 193.550781 130.433594 193.507812 C 130.777344 193.507812 131.117188 193.488281 131.457031 193.46875 C 131.796875 193.449219 132.136719 193.4375 132.476562 193.398438 L 133.488281 193.296875 L 134.5 193.152344 C 134.835938 193.109375 135.167969 193.039062 135.5 192.980469 C 135.835938 192.917969 136.167969 192.855469 136.496094 192.773438 L 137.484375 192.542969 L 138.460938 192.265625 C 138.789062 192.179688 139.105469 192.0625 139.429688 191.960938 C 139.75 191.855469 140.070312 191.75 140.382812 191.625 L 141.324219 191.265625 L 142.25 190.859375 C 142.558594 190.730469 142.855469 190.570312 143.15625 190.425781 C 143.457031 190.28125 143.757812 190.136719 144.050781 189.972656 C 144.347656 189.8125 144.640625 189.65625 144.929688 189.488281 L 145.78125 188.964844 C 146.070312 188.796875 146.34375 188.605469 146.617188 188.421875 C 146.894531 188.234375 147.171875 188.054688 147.4375 187.851562 L 148.226562 187.253906 L 148.992188 186.625 C 149.25 186.417969 149.496094 186.199219 149.738281 185.976562 C 149.980469 185.75 150.226562 185.539062 150.457031 185.304688 L 151.152344 184.609375 C 151.382812 184.378906 151.585938 184.148438 151.800781 183.917969 C 152.660156 182.996094 153.503906 182.066406 154.339844 181.117188 C 155.175781 180.171875 156 179.214844 156.796875 178.222656 C 155.679688 178.832031 154.589844 179.46875 153.507812 180.121094 C 152.429688 180.773438 151.359375 181.441406 150.300781 182.117188 L 149.511719 182.621094 L 148.742188 183.09375 C 148.492188 183.253906 148.222656 183.390625 147.964844 183.539062 C 147.703125 183.683594 147.449219 183.835938 147.183594 183.96875 L 146.394531 184.378906 L 145.589844 184.757812 C 145.328125 184.890625 145.054688 185 144.785156 185.121094 C 144.511719 185.234375 144.25 185.359375 143.972656 185.460938 C 142.886719 185.898438 141.78125 186.269531 140.667969 186.585938 C 139.550781 186.902344 138.421875 187.144531 137.296875 187.34375 C 136.164062 187.546875 135.027344 187.65625 133.890625 187.738281 C 132.753906 187.816406 131.617188 187.804688 130.488281 187.765625 L 129.640625 187.71875 L 128.796875 187.640625 C 128.515625 187.621094 128.234375 187.578125 127.957031 187.542969 C 127.675781 187.507812 127.394531 187.476562 127.117188 187.425781 L 126.285156 187.289062 L 125.457031 187.121094 C 125.179688 187.070312 124.910156 186.996094 124.632812 186.933594 C 124.359375 186.871094 124.085938 186.808594 123.816406 186.726562 C 122.730469 186.445312 121.664062 186.078125 120.617188 185.675781 L 119.835938 185.363281 L 119.066406 185.019531 C 118.808594 184.910156 118.558594 184.785156 118.304688 184.660156 C 118.054688 184.53125 117.796875 184.421875 117.550781 184.28125 L 116.808594 183.878906 C 116.570312 183.746094 116.347656 183.609375 116.117188 183.476562 L 115.765625 183.273438 L 115.375 183.019531 L 114.636719 182.546875 C 113.601562 181.851562 112.558594 181.167969 111.515625 180.484375 C 110.46875 179.804688 109.417969 179.128906 108.367188 178.460938 C 108.167969 178.335938 107.96875 178.210938 107.769531 178.085938 L 109.277344 176.617188 L 111.210938 174.6875 " fill-opacity="1" fill-rule="nonzero"/><g clip-path="url(#0a54b047a5)"><path fill="#c7b8ea" d="M 174.949219 181.972656 C 174.042969 182.597656 173.140625 183.226562 172.242188 183.863281 C 171.34375 184.496094 170.449219 185.136719 169.554688 185.777344 C 168.65625 186.414062 167.765625 187.058594 166.878906 187.703125 C 165.988281 188.351562 165.09375 188.992188 164.214844 189.644531 L 161.558594 191.601562 L 158.914062 193.570312 C 158.035156 194.226562 157.152344 194.882812 156.28125 195.546875 L 156.394531 195.457031 C 155.640625 195.914062 154.898438 196.382812 154.140625 196.820312 L 152.988281 197.449219 L 152.414062 197.765625 C 152.222656 197.871094 152.027344 197.960938 151.832031 198.058594 L 150.667969 198.640625 C 150.28125 198.839844 149.878906 199 149.484375 199.179688 L 148.890625 199.441406 L 148.597656 199.574219 L 148.292969 199.691406 L 147.089844 200.15625 C 145.480469 200.746094 143.851562 201.269531 142.191406 201.640625 C 140.535156 202.007812 138.863281 202.289062 137.171875 202.441406 C 136.324219 202.527344 135.46875 202.570312 134.605469 202.605469 L 133.289062 202.640625 L 132.617188 202.65625 L 131.96875 202.664062 L 131.625 202.667969 L 131.316406 202.667969 L 130.695312 202.660156 C 130.269531 202.648438 129.84375 202.636719 129.417969 202.613281 C 128.566406 202.570312 127.71875 202.503906 126.871094 202.40625 C 125.183594 202.21875 123.5 201.953125 121.84375 201.574219 C 121.015625 201.386719 120.195312 201.175781 119.378906 200.9375 L 119.074219 200.847656 L 118.921875 200.804688 L 118.789062 200.761719 L 118.140625 200.558594 C 117.726562 200.417969 117.363281 200.308594 116.957031 200.164062 C 115.351562 199.609375 113.785156 198.953125 112.261719 198.210938 C 110.738281 197.464844 109.257812 196.632812 107.824219 195.730469 C 107.46875 195.5 107.109375 195.273438 106.761719 195.03125 L 106.234375 194.671875 L 105.675781 194.28125 L 103.441406 192.722656 C 101.957031 191.679688 100.453125 190.660156 98.957031 189.625 C 97.457031 188.601562 95.96875 187.5625 94.460938 186.546875 L 89.945312 183.488281 C 88.445312 182.464844 86.925781 181.46875 85.417969 180.457031 C 84.785156 180.039062 84.15625 179.621094 83.527344 179.199219 L 84.988281 177.898438 L 88.917969 174.335938 C 90.230469 173.152344 91.527344 171.949219 92.832031 170.753906 C 94.136719 169.5625 95.421875 168.347656 96.71875 167.144531 C 98.015625 165.941406 99.296875 164.71875 100.585938 163.507812 L 102.503906 161.671875 L 104.414062 159.839844 C 104.742188 159.527344 105.042969 159.246094 105.371094 158.949219 C 105.691406 158.65625 106.019531 158.371094 106.351562 158.085938 C 107.011719 157.515625 107.6875 156.960938 108.382812 156.429688 C 109.074219 155.890625 109.785156 155.371094 110.507812 154.867188 C 111.230469 154.363281 111.96875 153.878906 112.722656 153.40625 C 111.886719 153.710938 111.0625 154.046875 110.25 154.410156 C 109.4375 154.777344 108.632812 155.171875 107.84375 155.589844 C 107.054688 156.015625 106.273438 156.460938 105.507812 156.933594 C 105.125 157.167969 104.746094 157.414062 104.371094 157.664062 C 104 157.910156 103.609375 158.175781 103.253906 158.425781 C 102.519531 158.945312 101.816406 159.464844 101.09375 159.984375 L 98.945312 161.546875 C 97.523438 162.597656 96.089844 163.632812 94.675781 164.695312 C 93.261719 165.757812 91.835938 166.804688 90.429688 167.875 C 89.019531 168.945312 87.605469 170.007812 86.203125 171.082031 L 82 174.3125 L 77.816406 177.570312 L 75.3125 179.523438 L 77.980469 181.550781 C 79.425781 182.652344 80.890625 183.730469 82.347656 184.816406 C 83.804688 185.898438 85.257812 186.992188 86.726562 188.0625 L 91.125 191.28125 C 92.589844 192.359375 94.070312 193.410156 95.539062 194.476562 C 97.015625 195.539062 98.480469 196.609375 99.964844 197.660156 L 102.1875 199.234375 L 102.742188 199.628906 L 103.339844 200.042969 C 103.734375 200.320312 104.140625 200.585938 104.546875 200.851562 C 105.359375 201.375 106.191406 201.875 107.035156 202.351562 C 107.882812 202.820312 108.742188 203.265625 109.617188 203.683594 C 111.367188 204.519531 113.164062 205.253906 115 205.875 C 115.445312 206.027344 115.953125 206.1875 116.402344 206.324219 L 117.058594 206.511719 L 117.253906 206.570312 L 117.78125 206.710938 C 118.714844 206.960938 119.65625 207.183594 120.605469 207.371094 C 121.554688 207.566406 122.507812 207.730469 123.464844 207.863281 C 123.941406 207.9375 124.421875 207.988281 124.902344 208.046875 C 125.386719 208.09375 125.867188 208.144531 126.347656 208.175781 C 127.3125 208.246094 128.277344 208.289062 129.242188 208.300781 C 129.722656 208.308594 130.207031 208.304688 130.6875 208.300781 L 131.429688 208.28125 L 131.800781 208.269531 L 132.140625 208.253906 L 132.851562 208.214844 L 133.539062 208.175781 C 134.003906 208.140625 134.476562 208.105469 134.945312 208.066406 C 135.894531 207.976562 136.851562 207.878906 137.808594 207.734375 C 139.722656 207.457031 141.628906 207.050781 143.484375 206.496094 C 145.339844 205.941406 147.140625 205.242188 148.886719 204.457031 L 150.179688 203.828125 L 150.503906 203.671875 L 150.820312 203.503906 L 151.449219 203.160156 C 151.863281 202.929688 152.292969 202.71875 152.695312 202.46875 L 153.914062 201.734375 C 154.117188 201.609375 154.324219 201.488281 154.519531 201.359375 L 155.109375 200.960938 L 156.277344 200.167969 C 157.046875 199.621094 157.792969 199.046875 158.546875 198.488281 L 158.640625 198.417969 L 158.660156 198.398438 C 159.472656 197.660156 160.273438 196.90625 161.078125 196.160156 L 163.488281 193.914062 L 165.886719 191.652344 C 166.6875 190.898438 167.476562 190.136719 168.273438 189.375 C 169.066406 188.617188 169.859375 187.855469 170.648438 187.089844 C 171.4375 186.324219 172.230469 185.558594 173.011719 184.785156 C 173.796875 184.015625 174.578125 183.238281 175.359375 182.460938 L 176.523438 181.289062 L 177.679688 180.109375 L 176.308594 181.035156 L 174.949219 181.972656 " fill-opacity="1" fill-rule="nonzero"/></g><g clip-path="url(#1a1101358b)"><path fill="#c7b8ea" d="M 150.1875 129.851562 L 150.238281 130.542969 L 150.347656 131.945312 C 150.433594 132.890625 150.542969 133.84375 150.695312 134.796875 C 150.988281 136.703125 151.410156 138.597656 151.96875 140.441406 C 152.535156 142.285156 153.253906 144.066406 154.046875 145.800781 L 154.683594 147.082031 L 154.839844 147.402344 L 155.011719 147.714844 L 155.359375 148.335938 C 155.59375 148.746094 155.808594 149.171875 156.058594 149.570312 L 156.804688 150.777344 C 156.929688 150.976562 157.050781 151.175781 157.183594 151.371094 L 157.585938 151.953125 L 158.386719 153.109375 C 158.65625 153.496094 158.949219 153.859375 159.230469 154.234375 L 160.082031 155.34375 L 160.152344 155.4375 L 160.15625 155.4375 L 161.753906 157.117188 C 162.285156 157.679688 162.816406 158.242188 163.355469 158.796875 C 164.429688 159.910156 165.496094 161.027344 166.582031 162.128906 L 168.210938 163.785156 L 169.847656 165.433594 L 171.496094 167.070312 C 172.050781 167.617188 172.605469 168.15625 173.167969 168.691406 C 172.738281 168.046875 172.304688 167.402344 171.871094 166.761719 L 170.554688 164.84375 L 169.226562 162.9375 L 167.886719 161.042969 C 166.996094 159.777344 166.085938 158.523438 165.1875 157.269531 C 164.734375 156.636719 164.277344 156.015625 163.820312 155.390625 L 162.453125 153.519531 L 162.523438 153.613281 C 162.082031 152.84375 161.613281 152.09375 161.179688 151.324219 L 160.554688 150.160156 L 160.246094 149.582031 C 160.144531 149.386719 160.054688 149.183594 159.957031 148.988281 L 159.382812 147.808594 C 159.1875 147.417969 159.03125 147.011719 158.855469 146.613281 L 158.59375 146.015625 L 158.464844 145.714844 L 158.351562 145.410156 L 157.894531 144.195312 C 157.3125 142.566406 156.808594 140.921875 156.445312 139.25 C 156.082031 137.582031 155.820312 135.898438 155.679688 134.195312 C 155.605469 133.347656 155.570312 132.488281 155.535156 131.621094 L 155.503906 130.304688 L 155.492188 129.632812 L 155.488281 128.980469 L 155.488281 128.636719 L 155.496094 128.324219 L 155.507812 127.703125 C 155.523438 127.273438 155.539062 126.847656 155.566406 126.421875 C 155.621094 125.570312 155.683594 124.71875 155.78125 123.871094 C 155.875 123.023438 155.996094 122.179688 156.140625 121.34375 C 156.285156 120.503906 156.457031 119.671875 156.652344 118.84375 C 156.84375 118.015625 157.054688 117.191406 157.292969 116.375 L 157.382812 116.070312 L 157.425781 115.917969 L 157.46875 115.785156 L 157.671875 115.136719 C 157.8125 114.71875 157.929688 114.359375 158.078125 113.953125 C 158.648438 112.351562 159.316406 110.789062 160.050781 109.261719 C 160.425781 108.5 160.820312 107.753906 161.234375 107.011719 C 161.65625 106.277344 162.09375 105.546875 162.550781 104.835938 C 162.785156 104.480469 163.015625 104.125 163.253906 103.777344 L 163.617188 103.25 L 164.003906 102.691406 L 165.566406 100.457031 C 166.601562 98.964844 167.65625 97.484375 168.679688 95.984375 L 171.761719 91.492188 C 172.796875 89.996094 173.800781 88.484375 174.824219 86.980469 C 175.839844 85.472656 176.859375 83.972656 177.859375 82.453125 L 179.082031 80.613281 L 180.28125 81.953125 C 181.433594 83.25 182.613281 84.523438 183.777344 85.8125 C 184.363281 86.449219 184.941406 87.097656 185.53125 87.734375 L 187.296875 89.644531 L 189.066406 91.558594 L 190.847656 93.457031 C 191.441406 94.089844 192.03125 94.726562 192.632812 95.355469 L 194.429688 97.242188 C 195.027344 97.875 195.628906 98.5 196.234375 99.125 L 198.046875 101 C 198.652344 101.617188 199.230469 102.230469 199.800781 102.871094 C 200.367188 103.511719 200.925781 104.164062 201.464844 104.835938 C 202.003906 105.507812 202.53125 106.191406 203.039062 106.890625 C 203.546875 107.589844 204.042969 108.304688 204.523438 109.035156 C 204.214844 108.21875 203.875 107.410156 203.507812 106.617188 C 203.136719 105.824219 202.746094 105.035156 202.320312 104.265625 C 201.898438 103.496094 201.453125 102.730469 200.980469 101.984375 C 200.507812 101.242188 200.003906 100.5 199.496094 99.789062 L 197.976562 97.667969 C 197.46875 96.964844 196.960938 96.257812 196.449219 95.558594 L 194.914062 93.453125 C 194.402344 92.75 193.882812 92.054688 193.363281 91.355469 L 191.816406 89.265625 L 188.683594 85.101562 C 188.164062 84.40625 187.632812 83.722656 187.109375 83.03125 C 186.050781 81.65625 185.007812 80.269531 183.941406 78.902344 L 180.746094 74.789062 L 178.738281 72.203125 L 176.679688 74.957031 L 173.417969 79.324219 C 172.328125 80.777344 171.257812 82.246094 170.179688 83.710938 C 169.109375 85.179688 168.023438 86.632812 166.964844 88.109375 L 163.773438 92.53125 C 162.703125 94 161.664062 95.488281 160.609375 96.96875 L 158.636719 99.742188 L 158.222656 100.339844 C 157.945312 100.734375 157.683594 101.144531 157.421875 101.550781 C 156.902344 102.371094 156.410156 103.203125 155.9375 104.050781 C 155.472656 104.898438 155.023438 105.757812 154.605469 106.632812 C 154.195312 107.507812 153.792969 108.390625 153.433594 109.289062 C 153.078125 110.191406 152.742188 111.097656 152.441406 112.019531 C 152.289062 112.46875 152.136719 112.976562 152 113.425781 L 151.808594 114.078125 L 151.753906 114.273438 L 151.613281 114.800781 C 151.367188 115.734375 151.140625 116.675781 150.957031 117.625 C 150.769531 118.574219 150.613281 119.527344 150.488281 120.484375 C 150.359375 121.441406 150.261719 122.402344 150.191406 123.363281 C 150.042969 125.289062 150.042969 127.214844 150.144531 129.144531 L 150.1875 129.851562 " fill-opacity="1" fill-rule="nonzero"/></g><path fill="#64dad5" d="M 181.679688 106.414062 C 182.324219 107.082031 182.988281 107.730469 183.648438 108.390625 C 183.976562 108.714844 184.304688 109.046875 184.640625 109.371094 L 185.644531 110.339844 L 186.636719 111.296875 C 186.960938 111.601562 187.273438 111.917969 187.585938 112.242188 C 187.890625 112.566406 188.199219 112.890625 188.503906 113.226562 L 188.949219 113.734375 L 189.386719 114.253906 C 189.675781 114.601562 189.964844 114.957031 190.242188 115.320312 C 190.519531 115.679688 190.800781 116.046875 191.066406 116.421875 C 191.609375 117.171875 192.121094 117.945312 192.636719 118.742188 C 192.59375 118.507812 192.554688 118.277344 192.507812 118.046875 C 192.457031 117.816406 192.410156 117.578125 192.355469 117.347656 C 192.242188 116.890625 192.121094 116.429688 191.980469 115.972656 C 191.839844 115.519531 191.6875 115.0625 191.519531 114.613281 C 191.355469 114.164062 191.171875 113.722656 190.984375 113.277344 C 190.792969 112.835938 190.582031 112.402344 190.367188 111.96875 C 190.148438 111.535156 189.921875 111.105469 189.679688 110.6875 C 189.433594 110.265625 189.183594 109.847656 188.917969 109.4375 L 188.722656 109.128906 L 188.527344 108.839844 L 188.140625 108.257812 L 187.363281 107.097656 C 187.105469 106.707031 186.839844 106.328125 186.578125 105.945312 C 186.046875 105.179688 185.527344 104.410156 184.988281 103.65625 L 184.179688 102.515625 C 183.910156 102.140625 183.648438 101.757812 183.371094 101.382812 C 182.828125 100.628906 182.28125 99.882812 181.730469 99.136719 L 179.847656 96.585938 L 177.6875 99.300781 C 176.949219 100.230469 176.214844 101.160156 175.492188 102.097656 C 174.765625 103.035156 174.042969 103.976562 173.328125 104.921875 C 172.613281 105.867188 171.910156 106.820312 171.203125 107.773438 L 170.8125 108.308594 L 170.648438 108.542969 L 170.136719 109.269531 L 170.011719 109.453125 L 169.601562 110.097656 C 169.425781 110.382812 169.230469 110.675781 169.078125 110.957031 L 168.59375 111.804688 C 168.4375 112.089844 168.296875 112.382812 168.144531 112.671875 C 167.996094 112.960938 167.851562 113.25 167.71875 113.550781 L 167.316406 114.4375 C 166.820312 115.644531 166.367188 116.867188 166.015625 118.121094 C 165.914062 118.429688 165.847656 118.746094 165.761719 119.0625 C 165.6875 119.378906 165.601562 119.691406 165.539062 120.011719 L 165.34375 120.964844 C 165.285156 121.285156 165.238281 121.605469 165.1875 121.925781 L 165.113281 122.410156 L 165.054688 122.890625 C 165.019531 123.214844 164.976562 123.535156 164.949219 123.859375 C 164.90625 124.503906 164.851562 125.152344 164.84375 125.796875 C 164.816406 126.445312 164.84375 127.09375 164.851562 127.738281 C 164.867188 128.058594 164.890625 128.382812 164.910156 128.703125 C 164.925781 129.027344 164.957031 129.347656 164.992188 129.667969 C 165.113281 130.949219 165.339844 132.222656 165.628906 133.46875 L 165.855469 134.402344 L 166.125 135.324219 C 166.210938 135.632812 166.3125 135.9375 166.417969 136.238281 C 166.527344 136.535156 166.625 136.839844 166.742188 137.136719 C 167.191406 138.332031 167.714844 139.488281 168.304688 140.605469 C 168.910156 141.71875 169.566406 142.792969 170.304688 143.808594 C 171.042969 144.820312 171.824219 145.792969 172.691406 146.679688 C 173.109375 147.132812 173.5625 147.558594 174.007812 147.976562 C 174.457031 148.382812 174.898438 148.78125 175.355469 149.171875 C 176.257812 149.960938 177.171875 150.738281 178.121094 151.492188 C 177.550781 150.425781 176.949219 149.386719 176.335938 148.355469 C 176.03125 147.835938 175.710938 147.332031 175.40625 146.820312 C 175.121094 146.3125 174.808594 145.828125 174.546875 145.3125 C 174.410156 145.058594 174.269531 144.808594 174.140625 144.554688 L 173.757812 143.789062 C 173.625 143.535156 173.519531 143.269531 173.402344 143.011719 C 173.289062 142.75 173.160156 142.5 173.054688 142.234375 L 172.730469 141.457031 C 172.625 141.195312 172.535156 140.925781 172.4375 140.664062 C 172.234375 140.144531 172.066406 139.605469 171.890625 139.078125 C 171.734375 138.542969 171.570312 138.015625 171.4375 137.476562 C 171.289062 136.941406 171.175781 136.402344 171.058594 135.863281 C 170.855469 134.78125 170.660156 133.703125 170.558594 132.613281 C 170.453125 131.527344 170.382812 130.445312 170.386719 129.363281 C 170.371094 128.820312 170.410156 128.28125 170.417969 127.742188 C 170.457031 127.203125 170.476562 126.664062 170.542969 126.128906 C 170.636719 125.058594 170.808594 123.996094 171.019531 122.949219 C 171.214844 121.894531 171.507812 120.863281 171.8125 119.839844 L 172.058594 119.082031 C 172.140625 118.828125 172.242188 118.578125 172.332031 118.328125 C 172.5 117.824219 172.722656 117.335938 172.917969 116.839844 C 173.351562 115.863281 173.8125 114.902344 174.335938 113.972656 C 174.460938 113.730469 174.59375 113.527344 174.722656 113.308594 L 174.914062 112.980469 L 175.007812 112.816406 L 175.128906 112.628906 L 175.613281 111.886719 L 175.671875 111.792969 L 175.710938 111.734375 C 175.738281 111.691406 175.691406 111.757812 175.683594 111.773438 L 175.699219 111.75 L 175.824219 111.566406 L 176.070312 111.199219 C 176.730469 110.214844 177.390625 109.230469 178.035156 108.234375 C 178.6875 107.246094 179.328125 106.25 179.964844 105.25 C 180.042969 105.132812 180.117188 105.011719 180.191406 104.894531 C 180.363281 105.070312 180.535156 105.242188 180.703125 105.417969 L 181.679688 106.414062 " fill-opacity="1" fill-rule="nonzero"/><path fill="#c7b8ea" d="M 185.25 147.765625 L 185.230469 147.914062 C 185.445312 147.0625 185.640625 146.207031 185.867188 145.359375 L 186.234375 144.101562 L 186.410156 143.472656 C 186.472656 143.265625 186.546875 143.0625 186.617188 142.855469 L 187.03125 141.621094 C 187.164062 141.207031 187.335938 140.8125 187.488281 140.40625 C 187.785156 139.59375 188.144531 138.8125 188.484375 138.023438 C 189.203125 136.46875 189.992188 134.953125 190.898438 133.519531 C 191.796875 132.082031 192.789062 130.710938 193.875 129.40625 C 194.410156 128.75 194.988281 128.117188 195.566406 127.476562 L 196.464844 126.515625 L 196.929688 126.03125 L 197.382812 125.566406 C 198.566406 124.355469 199.847656 123.214844 201.164062 122.144531 C 201.820312 121.609375 202.496094 121.089844 203.1875 120.597656 C 203.875 120.101562 204.582031 119.628906 205.300781 119.175781 C 206.015625 118.722656 206.75 118.292969 207.488281 117.878906 L 207.90625 117.644531 L 208.023438 117.582031 L 208.625 117.261719 C 209.015625 117.0625 209.351562 116.886719 209.742188 116.703125 C 211.269531 115.957031 212.839844 115.320312 214.441406 114.757812 C 215.238281 114.476562 216.046875 114.222656 216.859375 113.984375 C 217.675781 113.753906 218.5 113.542969 219.328125 113.355469 C 219.742188 113.265625 220.15625 113.175781 220.574219 113.097656 L 221.199219 112.980469 L 221.871094 112.859375 L 224.550781 112.367188 L 229.910156 111.371094 L 235.261719 110.339844 L 237.9375 109.820312 L 240.609375 109.28125 C 242.390625 108.917969 244.171875 108.570312 245.953125 108.195312 L 248.394531 107.683594 L 248.332031 109.046875 L 248.226562 111.296875 L 248.136719 113.546875 L 248.042969 115.792969 C 248.011719 116.542969 247.992188 117.292969 247.964844 118.042969 C 247.917969 119.542969 247.855469 121.042969 247.824219 122.546875 C 247.789062 124.046875 247.738281 125.546875 247.714844 127.050781 L 247.671875 129.304688 L 247.644531 131.558594 L 247.621094 133.8125 L 247.613281 136.070312 C 247.617188 136.816406 247.597656 137.5625 247.570312 138.3125 C 247.539062 139.058594 247.496094 139.808594 247.4375 140.5625 C 247.65625 139.839844 247.855469 139.113281 248.035156 138.375 C 248.210938 137.640625 248.363281 136.898438 248.5 136.152344 L 248.898438 133.929688 L 249.28125 131.707031 L 249.65625 129.484375 L 250.019531 127.257812 C 250.265625 125.777344 250.484375 124.292969 250.71875 122.808594 C 250.953125 121.324219 251.164062 119.839844 251.386719 118.351562 C 251.492188 117.609375 251.609375 116.867188 251.710938 116.125 L 252.023438 113.894531 L 252.335938 111.667969 L 252.636719 109.4375 L 253.226562 104.976562 L 253.617188 102.019531 L 250.484375 102.449219 L 245.082031 103.195312 C 243.28125 103.441406 241.488281 103.714844 239.6875 103.976562 L 236.988281 104.367188 L 234.296875 104.78125 L 228.910156 105.613281 L 223.527344 106.480469 L 220.839844 106.917969 L 220.167969 107.03125 L 219.453125 107.160156 C 218.976562 107.246094 218.503906 107.34375 218.03125 107.445312 C 217.082031 107.648438 216.144531 107.882812 215.210938 108.140625 C 214.277344 108.402344 213.351562 108.6875 212.433594 109.003906 C 210.605469 109.644531 208.816406 110.402344 207.078125 111.257812 C 206.652344 111.464844 206.183594 111.714844 205.765625 111.929688 L 205.167969 112.257812 L 204.988281 112.355469 L 204.515625 112.621094 C 203.671875 113.101562 202.847656 113.609375 202.042969 114.148438 C 201.234375 114.683594 200.445312 115.242188 199.671875 115.824219 C 198.898438 116.40625 198.144531 117.011719 197.40625 117.640625 C 197.039062 117.949219 196.679688 118.273438 196.316406 118.59375 C 195.964844 118.925781 195.609375 119.253906 195.265625 119.59375 C 194.917969 119.925781 194.582031 120.273438 194.242188 120.617188 L 193.730469 121.15625 L 193.476562 121.425781 L 193.25 121.679688 L 192.773438 122.207031 L 192.316406 122.726562 L 191.390625 123.792969 C 190.773438 124.519531 190.171875 125.269531 189.597656 126.050781 C 188.441406 127.601562 187.386719 129.242188 186.449219 130.941406 C 185.527344 132.648438 184.757812 134.421875 184.074219 136.214844 L 183.59375 137.570312 L 183.476562 137.910156 L 183.171875 138.941406 C 183.042969 139.402344 182.890625 139.855469 182.78125 140.316406 L 182.441406 141.703125 C 182.386719 141.933594 182.324219 142.160156 182.277344 142.394531 L 182.140625 143.089844 L 181.871094 144.480469 C 181.71875 145.414062 181.597656 146.347656 181.460938 147.277344 L 181.441406 147.398438 L 181.441406 147.421875 L 181.375 149.070312 L 181.316406 150.714844 L 181.207031 154.007812 L 181.117188 157.304688 C 181.085938 158.402344 181.058594 159.503906 181.039062 160.601562 C 181.019531 161.699219 180.996094 162.800781 180.984375 163.902344 C 180.972656 165 180.953125 166.097656 180.953125 167.199219 C 180.945312 168.300781 180.941406 169.402344 180.945312 170.503906 L 180.957031 172.15625 L 180.980469 173.8125 L 181.300781 172.1875 L 181.605469 170.5625 C 181.808594 169.480469 182.003906 168.398438 182.191406 167.3125 C 182.386719 166.230469 182.566406 165.144531 182.75 164.058594 C 182.9375 162.976562 183.109375 161.890625 183.285156 160.804688 C 183.464844 159.71875 183.636719 158.632812 183.800781 157.546875 L 184.304688 154.289062 L 184.785156 151.027344 L 185.019531 149.398438 L 185.25 147.765625 " fill-opacity="1" fill-rule="nonzero"/><path fill="#64dad5" d="M 223.78125 127.582031 L 223.785156 127.578125 C 223.789062 127.578125 223.824219 127.574219 223.78125 127.582031 Z M 231.1875 138.820312 C 231.148438 139.304688 231.09375 139.789062 231.039062 140.277344 C 230.984375 140.761719 230.914062 141.25 230.835938 141.738281 L 230.71875 142.472656 L 230.585938 143.210938 C 230.492188 143.703125 230.386719 144.199219 230.28125 144.695312 L 230.117188 145.441406 C 230.054688 145.691406 230 145.945312 229.941406 146.199219 C 230.109375 146.003906 230.285156 145.808594 230.445312 145.609375 C 230.609375 145.40625 230.769531 145.203125 230.929688 144.992188 C 231.078125 144.78125 231.238281 144.574219 231.382812 144.359375 L 231.820312 143.707031 C 232.101562 143.269531 232.363281 142.816406 232.621094 142.355469 C 232.875 141.894531 233.109375 141.421875 233.335938 140.945312 C 233.5625 140.46875 233.765625 139.980469 233.960938 139.484375 C 234.054688 139.238281 234.15625 138.988281 234.246094 138.738281 C 234.328125 138.488281 234.417969 138.234375 234.5 137.980469 C 234.660156 137.472656 234.816406 136.957031 234.949219 136.4375 C 235.011719 136.179688 235.078125 135.917969 235.136719 135.65625 L 235.304688 134.871094 C 235.507812 133.882812 235.695312 132.890625 235.878906 131.894531 C 236.058594 130.902344 236.230469 129.910156 236.394531 128.914062 C 236.558594 127.917969 236.710938 126.925781 236.859375 125.925781 C 237 124.933594 237.140625 123.933594 237.269531 122.9375 L 237.734375 119.316406 L 233.886719 119.820312 C 233.070312 119.929688 232.253906 120.046875 231.4375 120.164062 C 230.621094 120.289062 229.804688 120.40625 228.992188 120.539062 C 228.175781 120.667969 227.363281 120.804688 226.550781 120.945312 C 225.734375 121.082031 224.925781 121.230469 224.113281 121.375 L 222.898438 121.605469 L 222.746094 121.632812 L 222.582031 121.664062 L 222.507812 121.679688 L 222.203125 121.75 L 221.601562 121.886719 C 220.84375 122.035156 219.871094 122.339844 218.984375 122.601562 C 218.75 122.664062 218.550781 122.753906 218.335938 122.828125 L 217.703125 123.066406 L 217.066406 123.304688 C 216.859375 123.382812 216.65625 123.484375 216.449219 123.574219 L 215.21875 124.132812 L 214.023438 124.765625 C 213.828125 124.871094 213.628906 124.976562 213.4375 125.089844 L 212.863281 125.445312 C 212.484375 125.683594 212.101562 125.914062 211.734375 126.167969 C 211.003906 126.6875 210.273438 127.203125 209.601562 127.785156 C 208.90625 128.339844 208.273438 128.964844 207.636719 129.578125 C 207.324219 129.890625 207.03125 130.222656 206.734375 130.546875 L 206.292969 131.035156 C 206.148438 131.203125 206.015625 131.378906 205.878906 131.550781 C 205.605469 131.898438 205.332031 132.238281 205.070312 132.585938 C 204.816406 132.941406 204.570312 133.304688 204.328125 133.664062 C 204.078125 134.019531 203.859375 134.398438 203.640625 134.773438 L 203.316406 135.335938 L 203.15625 135.617188 L 203.011719 135.90625 C 202.816406 136.292969 202.632812 136.683594 202.449219 137.070312 C 202.261719 137.457031 202.117188 137.867188 201.957031 138.261719 C 201.882812 138.460938 201.800781 138.660156 201.730469 138.859375 C 201.65625 139.058594 201.597656 139.269531 201.535156 139.46875 C 201.410156 139.878906 201.296875 140.289062 201.1875 140.699219 C 201.484375 140.386719 201.769531 140.078125 202.050781 139.769531 C 202.191406 139.613281 202.324219 139.453125 202.46875 139.304688 C 202.617188 139.160156 202.761719 139.007812 202.90625 138.859375 L 203.335938 138.414062 C 203.480469 138.269531 203.613281 138.113281 203.765625 137.976562 C 204.0625 137.695312 204.363281 137.417969 204.648438 137.132812 L 204.863281 136.921875 L 205.09375 136.722656 L 205.546875 136.324219 C 205.847656 136.058594 206.132812 135.78125 206.453125 135.539062 C 206.765625 135.289062 207.074219 135.039062 207.375 134.785156 C 207.6875 134.546875 208.007812 134.316406 208.324219 134.082031 L 208.792969 133.730469 L 209.28125 133.402344 C 209.609375 133.1875 209.917969 132.957031 210.246094 132.75 C 210.910156 132.347656 211.550781 131.925781 212.234375 131.566406 C 212.574219 131.386719 212.894531 131.183594 213.242188 131.023438 C 213.585938 130.855469 213.925781 130.683594 214.265625 130.511719 C 214.605469 130.34375 214.960938 130.207031 215.300781 130.046875 L 215.820312 129.816406 C 215.992188 129.742188 216.171875 129.683594 216.347656 129.613281 L 217.398438 129.203125 L 218.46875 128.847656 C 218.648438 128.789062 218.820312 128.722656 219 128.671875 L 219.542969 128.519531 C 219.902344 128.421875 220.269531 128.3125 220.617188 128.222656 C 221.324219 128.074219 221.929688 127.898438 222.800781 127.757812 L 223.714844 127.59375 L 223.722656 127.589844 L 223.738281 127.589844 L 223.777344 127.582031 L 223.929688 127.558594 L 225.152344 127.363281 C 225.964844 127.226562 226.78125 127.09375 227.59375 126.949219 C 228.402344 126.804688 229.214844 126.660156 230.027344 126.503906 C 230.464844 126.425781 230.902344 126.339844 231.34375 126.253906 C 231.320312 126.988281 231.300781 127.71875 231.289062 128.453125 C 231.269531 129.460938 231.261719 130.46875 231.261719 131.480469 C 231.265625 132.488281 231.273438 133.5 231.296875 134.511719 C 231.304688 134.996094 231.316406 135.460938 231.3125 135.941406 C 231.308594 136.417969 231.300781 136.898438 231.277344 137.375 C 231.253906 137.855469 231.21875 138.335938 231.1875 138.820312 " fill-opacity="1" fill-rule="nonzero"/><path fill="#64dad5" d="M 202.195312 180.6875 C 203.527344 179.773438 204.855469 178.859375 206.195312 177.976562 C 207.542969 177.097656 208.878906 176.222656 210.246094 175.402344 C 211.609375 174.585938 212.972656 173.78125 214.363281 173.046875 C 215.753906 172.3125 217.148438 171.609375 218.566406 170.992188 C 218.921875 170.835938 219.273438 170.683594 219.632812 170.539062 C 219.988281 170.390625 220.347656 170.253906 220.703125 170.117188 C 221.0625 169.976562 221.421875 169.851562 221.777344 169.714844 C 222.136719 169.59375 222.496094 169.464844 222.859375 169.351562 C 224.300781 168.886719 225.757812 168.523438 227.214844 168.257812 C 228.667969 167.996094 230.128906 167.84375 231.578125 167.832031 C 233.023438 167.828125 234.460938 167.914062 235.871094 168.164062 C 237.28125 168.414062 238.664062 168.800781 240.019531 169.292969 C 241.371094 169.792969 242.683594 170.421875 243.960938 171.148438 C 244.597656 171.511719 245.222656 171.898438 245.839844 172.308594 C 246.433594 172.703125 247.125 173.195312 247.785156 173.65625 L 251.792969 176.433594 C 252.097656 176.640625 252.40625 176.851562 252.710938 177.058594 C 252.09375 177.601562 251.476562 178.140625 250.859375 178.679688 L 249.667969 179.71875 L 248.484375 180.773438 L 247.304688 181.824219 L 246.714844 182.347656 L 246.566406 182.480469 L 246.527344 182.511719 L 246.511719 182.527344 L 246.5 182.535156 C 246.488281 182.546875 246.574219 182.476562 246.535156 182.507812 L 246.460938 182.574219 L 245.558594 183.34375 L 245.011719 183.769531 C 244.667969 184.0625 244.257812 184.34375 243.875 184.632812 C 243.679688 184.78125 243.476562 184.90625 243.273438 185.046875 C 243.074219 185.179688 242.875 185.320312 242.667969 185.449219 L 242.050781 185.832031 L 241.738281 186.019531 L 241.417969 186.199219 L 240.78125 186.554688 L 240.132812 186.890625 C 239.703125 187.125 239.257812 187.320312 238.816406 187.53125 C 238.59375 187.636719 238.363281 187.722656 238.140625 187.820312 C 237.914062 187.910156 237.6875 188.011719 237.460938 188.097656 C 237 188.265625 236.542969 188.449219 236.070312 188.59375 L 235.371094 188.832031 L 234.660156 189.035156 C 234.1875 189.183594 233.703125 189.285156 233.222656 189.410156 C 232.253906 189.617188 231.277344 189.8125 230.289062 189.9375 L 229.917969 189.984375 L 229.730469 190.011719 L 229.683594 190.015625 L 229.671875 190.019531 C 229.726562 190.015625 229.679688 190.019531 229.691406 190.019531 L 229.664062 190.019531 L 229.566406 190.027344 L 228.777344 190.097656 L 228.582031 190.117188 L 228.398438 190.128906 L 228.03125 190.148438 C 227.789062 190.160156 227.546875 190.1875 227.292969 190.1875 C 226.285156 190.230469 225.277344 190.203125 224.261719 190.148438 C 223.25 190.082031 222.234375 189.984375 221.222656 189.820312 C 220.214844 189.65625 219.199219 189.460938 218.203125 189.195312 C 217.695312 189.078125 217.203125 188.921875 216.703125 188.777344 C 216.453125 188.703125 216.207031 188.613281 215.957031 188.535156 C 215.707031 188.457031 215.460938 188.375 215.214844 188.28125 C 214.226562 187.9375 213.257812 187.523438 212.285156 187.097656 L 212.914062 187.585938 L 213.230469 187.828125 L 213.558594 188.058594 L 214.214844 188.515625 L 214.894531 188.945312 C 215.117188 189.09375 215.351562 189.230469 215.582031 189.363281 C 215.816406 189.5 216.046875 189.632812 216.285156 189.761719 C 216.761719 190.011719 217.238281 190.269531 217.730469 190.496094 C 218.707031 190.964844 219.71875 191.359375 220.75 191.71875 C 221.78125 192.074219 222.839844 192.359375 223.910156 192.609375 C 224.984375 192.832031 226.074219 193.027344 227.175781 193.140625 C 227.445312 193.179688 227.734375 193.199219 228.015625 193.21875 L 228.441406 193.253906 L 228.652344 193.265625 L 228.851562 193.277344 L 229.640625 193.308594 L 229.742188 193.3125 L 229.765625 193.316406 L 229.820312 193.3125 L 229.871094 193.316406 L 230.496094 193.316406 C 231.054688 193.328125 231.613281 193.296875 232.171875 193.277344 C 232.449219 193.269531 232.726562 193.238281 233.003906 193.214844 C 233.285156 193.191406 233.5625 193.171875 233.839844 193.140625 C 234.394531 193.0625 234.957031 193.011719 235.507812 192.90625 L 236.339844 192.765625 L 237.164062 192.59375 C 237.71875 192.484375 238.257812 192.324219 238.804688 192.183594 C 239.078125 192.113281 239.347656 192.023438 239.617188 191.945312 C 239.886719 191.855469 240.160156 191.785156 240.425781 191.6875 C 240.957031 191.496094 241.496094 191.320312 242.019531 191.101562 C 242.28125 190.996094 242.546875 190.894531 242.808594 190.78125 L 243.972656 190.25 L 244.351562 190.058594 L 245.113281 189.671875 C 245.367188 189.542969 245.613281 189.398438 245.859375 189.257812 C 246.109375 189.117188 246.363281 188.984375 246.601562 188.832031 C 247.085938 188.527344 247.570312 188.25 248.0625 187.902344 L 248.792969 187.394531 L 249.425781 186.917969 L 249.742188 186.683594 L 249.824219 186.625 L 249.945312 186.527344 L 250.101562 186.40625 L 250.722656 185.917969 L 253.214844 183.96875 L 254.449219 182.984375 C 256.097656 181.667969 257.753906 180.363281 259.390625 179.035156 L 262.324219 176.660156 L 259.199219 174.378906 C 257.886719 173.421875 256.570312 172.46875 255.25 171.519531 L 251.285156 168.683594 C 250.011719 167.78125 248.515625 166.707031 246.96875 165.847656 C 245.417969 164.96875 243.785156 164.199219 242.078125 163.601562 C 240.371094 162.996094 238.597656 162.5625 236.800781 162.296875 C 235 162.035156 233.179688 161.945312 231.378906 162.039062 C 229.578125 162.136719 227.804688 162.40625 226.078125 162.796875 C 224.351562 163.191406 222.683594 163.75 221.066406 164.378906 C 219.449219 165.003906 217.898438 165.75 216.394531 166.558594 C 214.894531 167.367188 213.441406 168.230469 212.042969 169.167969 C 210.644531 170.105469 209.28125 171.066406 207.964844 172.089844 C 206.652344 173.109375 205.363281 174.148438 204.121094 175.234375 C 202.871094 176.3125 201.648438 177.410156 200.453125 178.539062 C 199.253906 179.65625 198.085938 180.804688 196.925781 181.957031 C 195.769531 183.117188 194.628906 184.28125 193.5 185.460938 C 192.367188 186.640625 191.246094 187.824219 190.132812 189.027344 C 191.511719 188.144531 192.863281 187.21875 194.207031 186.289062 C 195.550781 185.363281 196.878906 184.417969 198.210938 183.484375 C 199.539062 182.542969 200.867188 181.613281 202.195312 180.6875 " fill-opacity="1" fill-rule="nonzero"/><g clip-path="url(#30905753c8)"><path fill="#c7b8ea" d="M 283.589844 173.308594 L 279.140625 170.160156 C 277.660156 169.105469 276.167969 168.070312 274.679688 167.027344 L 270.214844 163.902344 C 268.730469 162.855469 267.238281 161.816406 265.742188 160.785156 L 261.261719 157.683594 L 259.023438 156.136719 L 258.460938 155.746094 L 257.871094 155.347656 L 257.585938 155.15625 L 257.269531 154.957031 C 257.0625 154.824219 256.851562 154.683594 256.644531 154.558594 C 255.824219 154.046875 254.988281 153.566406 254.140625 153.101562 C 253.289062 152.644531 252.429688 152.207031 251.554688 151.800781 C 249.804688 150.988281 248.015625 150.265625 246.179688 149.679688 C 245.261719 149.386719 244.335938 149.113281 243.410156 148.878906 L 243.082031 148.792969 L 242.003906 148.535156 C 241.535156 148.433594 241.066406 148.328125 240.59375 148.242188 C 238.707031 147.867188 236.800781 147.617188 234.886719 147.492188 C 233.929688 147.425781 232.972656 147.390625 232.015625 147.382812 C 231.058594 147.375 230.101562 147.398438 229.148438 147.449219 L 228.429688 147.488281 L 227.753906 147.535156 C 227.292969 147.566406 226.816406 147.605469 226.347656 147.648438 C 225.40625 147.738281 224.460938 147.839844 223.515625 147.988281 C 221.621094 148.273438 219.738281 148.679688 217.902344 149.226562 C 216.066406 149.777344 214.289062 150.480469 212.558594 151.257812 L 211.277344 151.871094 L 210.957031 152.023438 L 210.644531 152.195312 L 210.023438 152.53125 C 209.609375 152.761719 209.1875 152.972656 208.785156 153.21875 L 207.578125 153.949219 C 207.378906 154.074219 207.175781 154.191406 206.976562 154.320312 L 206.394531 154.710938 L 205.226562 155.492188 C 204.839844 155.75 204.472656 156.042969 204.097656 156.316406 L 202.972656 157.152344 L 202.898438 157.207031 L 202.886719 157.21875 L 200.605469 159.304688 L 198.332031 161.398438 L 196.0625 163.5 L 193.804688 165.605469 L 191.546875 167.722656 L 189.300781 169.847656 L 187.0625 171.984375 C 186.316406 172.695312 185.574219 173.414062 184.835938 174.136719 C 185.679688 173.539062 186.519531 172.9375 187.351562 172.328125 L 189.855469 170.511719 L 192.347656 168.683594 L 194.832031 166.839844 L 197.3125 164.996094 L 202.25 161.277344 L 204.710938 159.40625 L 204.621094 159.472656 C 205.382812 159.015625 206.132812 158.542969 206.890625 158.09375 L 208.046875 157.449219 L 208.625 157.128906 C 208.816406 157.023438 209.015625 156.929688 209.210938 156.828125 L 210.390625 156.242188 C 210.777344 156.042969 211.1875 155.878906 211.582031 155.699219 C 212.375 155.328125 213.191406 155.023438 214 154.703125 C 215.628906 154.105469 217.28125 153.582031 218.960938 153.207031 C 220.640625 152.832031 222.332031 152.554688 224.046875 152.40625 C 224.902344 152.324219 225.765625 152.28125 226.636719 152.253906 L 227.953125 152.222656 L 228.636719 152.210938 L 229.285156 152.207031 C 230.144531 152.203125 231.003906 152.222656 231.863281 152.277344 C 232.722656 152.324219 233.578125 152.394531 234.429688 152.5 C 235.285156 152.597656 236.132812 152.722656 236.976562 152.875 C 237.820312 153.015625 238.660156 153.1875 239.492188 153.386719 C 239.910156 153.480469 240.324219 153.589844 240.738281 153.695312 L 241.339844 153.863281 L 241.640625 153.949219 L 241.96875 154.046875 C 242.796875 154.292969 243.601562 154.5625 244.40625 154.855469 C 246.007812 155.445312 247.578125 156.113281 249.101562 156.875 C 249.863281 157.257812 250.613281 157.664062 251.351562 158.089844 C 252.085938 158.519531 252.8125 158.964844 253.523438 159.433594 C 253.703125 159.550781 253.863281 159.664062 254.035156 159.78125 L 254.292969 159.953125 L 254.566406 160.148438 L 255.652344 160.917969 L 257.867188 162.507812 L 262.296875 165.683594 C 263.769531 166.742188 265.25 167.796875 266.734375 168.84375 L 271.183594 171.996094 C 272.664062 173.042969 274.144531 174.101562 275.632812 175.140625 L 276.871094 176.003906 L 275.5625 177.101562 L 271.242188 180.769531 L 266.921875 184.433594 L 262.617188 188.121094 L 258.320312 191.8125 L 256.175781 193.667969 L 255.660156 194.113281 C 255.488281 194.257812 255.320312 194.40625 255.148438 194.542969 C 254.804688 194.824219 254.460938 195.105469 254.109375 195.378906 C 252.703125 196.472656 251.226562 197.472656 249.699219 198.390625 C 248.933594 198.847656 248.160156 199.289062 247.367188 199.699219 C 246.96875 199.90625 246.570312 200.105469 246.167969 200.300781 L 245.5625 200.585938 L 244.964844 200.855469 C 244.121094 201.222656 243.304688 201.5625 242.460938 201.871094 C 241.621094 202.183594 240.773438 202.480469 239.914062 202.742188 C 238.199219 203.269531 236.445312 203.6875 234.667969 204 C 233.78125 204.160156 232.886719 204.292969 231.992188 204.398438 C 231.550781 204.449219 231.121094 204.5 230.636719 204.535156 L 230.285156 204.566406 L 229.964844 204.589844 L 229.285156 204.632812 C 227.476562 204.726562 225.65625 204.726562 223.839844 204.613281 C 222.023438 204.496094 220.210938 204.261719 218.410156 203.929688 C 217.957031 203.851562 217.515625 203.757812 217.074219 203.664062 L 216.386719 203.507812 L 216.210938 203.46875 L 216.140625 203.449219 L 216.058594 203.429688 L 215.722656 203.347656 C 214.832031 203.121094 213.945312 202.875 213.066406 202.597656 C 211.308594 202.054688 209.582031 201.382812 207.886719 200.628906 C 206.199219 199.863281 204.550781 198.996094 202.945312 198.035156 L 202.890625 198.003906 L 202.882812 198 L 201.203125 196.96875 L 199.464844 195.910156 L 197.722656 194.851562 L 195.976562 193.804688 C 196.5 194.238281 197.019531 194.675781 197.550781 195.101562 L 200.714844 197.664062 L 201.503906 198.304688 L 202.304688 198.941406 L 202.359375 198.976562 L 202.367188 198.980469 L 202.316406 198.949219 C 203.070312 199.535156 203.84375 200.101562 204.636719 200.644531 C 205.433594 201.183594 206.25 201.695312 207.078125 202.191406 C 208.734375 203.171875 210.46875 204.039062 212.253906 204.800781 C 213.144531 205.183594 214.050781 205.535156 214.96875 205.851562 L 215.3125 205.972656 L 215.398438 206.003906 L 215.496094 206.035156 L 215.664062 206.089844 L 216.339844 206.308594 C 216.8125 206.453125 217.289062 206.601562 217.753906 206.730469 C 219.628906 207.261719 221.550781 207.65625 223.488281 207.941406 C 225.425781 208.222656 227.390625 208.382812 229.355469 208.410156 L 230.09375 208.414062 L 230.480469 208.414062 L 230.835938 208.410156 C 231.078125 208.402344 231.296875 208.40625 231.554688 208.394531 L 232.308594 208.363281 C 233.296875 208.316406 234.277344 208.238281 235.261719 208.132812 C 237.222656 207.90625 239.175781 207.558594 241.101562 207.089844 C 242.066406 206.859375 243.023438 206.589844 243.972656 206.300781 C 244.917969 206.003906 245.863281 205.664062 246.769531 205.320312 L 247.480469 205.042969 L 248.167969 204.757812 C 248.625 204.5625 249.085938 204.363281 249.535156 204.152344 C 250.445312 203.742188 251.335938 203.292969 252.214844 202.820312 C 253.972656 201.878906 255.664062 200.808594 257.285156 199.644531 C 257.695312 199.355469 258.09375 199.054688 258.492188 198.75 C 258.691406 198.601562 258.886719 198.445312 259.082031 198.292969 L 259.65625 197.835938 L 261.867188 196.0625 L 266.265625 192.492188 L 270.664062 188.917969 L 275.042969 185.324219 L 279.425781 181.730469 L 283.785156 178.113281 L 286.816406 175.597656 L 283.589844 173.308594 " fill-opacity="1" fill-rule="nonzero"/></g><path fill="#c7b8ea" d="M 105.679688 110.515625 L 106.078125 113.214844 C 106.34375 115.011719 106.601562 116.808594 106.875 118.605469 L 107.710938 123.992188 C 107.980469 125.789062 108.28125 127.582031 108.570312 129.375 L 109.441406 134.753906 L 109.898438 137.441406 L 110.011719 138.113281 L 110.140625 138.8125 L 110.203125 139.152344 L 110.273438 139.519531 C 110.324219 139.761719 110.371094 140.011719 110.425781 140.25 C 110.628906 141.195312 110.867188 142.136719 111.121094 143.070312 C 111.382812 144.003906 111.679688 144.925781 112 145.839844 C 112.648438 147.667969 113.398438 149.457031 114.257812 151.195312 C 114.6875 152.058594 115.140625 152.921875 115.628906 153.75 L 115.796875 154.046875 L 115.988281 154.363281 L 116.375 155 C 116.632812 155.410156 116.890625 155.820312 117.160156 156.222656 C 117.695312 157.027344 118.25 157.820312 118.835938 158.589844 C 119.417969 159.363281 120.015625 160.125 120.652344 160.851562 C 121.28125 161.585938 121.933594 162.296875 122.609375 162.988281 C 123.28125 163.679688 123.976562 164.351562 124.691406 165 L 125.226562 165.484375 L 125.734375 165.933594 C 126.078125 166.238281 126.445312 166.554688 126.808594 166.859375 C 127.539062 167.46875 128.289062 168.074219 129.066406 168.648438 C 130.617188 169.800781 132.25 170.867188 133.957031 171.785156 C 135.660156 172.710938 137.433594 173.480469 139.222656 174.167969 L 140.578125 174.640625 L 140.917969 174.757812 L 141.949219 175.0625 C 142.40625 175.191406 142.859375 175.34375 143.320312 175.453125 L 144.703125 175.792969 C 144.933594 175.851562 145.164062 175.910156 145.394531 175.960938 L 146.089844 176.097656 L 147.484375 176.363281 C 148.414062 176.519531 149.347656 176.636719 150.273438 176.777344 L 150.390625 176.792969 L 150.417969 176.796875 C 151.515625 176.84375 152.617188 176.882812 153.714844 176.921875 L 157.015625 177.035156 L 160.316406 177.128906 L 161.964844 177.175781 L 163.617188 177.210938 C 164.71875 177.234375 165.820312 177.257812 166.921875 177.269531 L 168.574219 177.296875 L 170.226562 177.3125 C 171.328125 177.320312 172.429688 177.328125 173.535156 177.324219 L 175.1875 177.320312 L 176.84375 177.300781 L 175.21875 176.984375 L 173.589844 176.683594 C 172.507812 176.484375 171.421875 176.292969 170.335938 176.105469 L 168.707031 175.824219 L 167.074219 175.554688 C 165.988281 175.371094 164.902344 175.195312 163.816406 175.023438 L 162.183594 174.761719 L 160.550781 174.511719 L 157.289062 174.011719 L 154.023438 173.535156 C 152.933594 173.375 151.84375 173.214844 150.753906 173.066406 L 150.898438 173.085938 C 150.046875 172.875 149.1875 172.679688 148.34375 172.453125 L 147.085938 172.085938 L 146.457031 171.90625 C 146.246094 171.84375 146.042969 171.769531 145.835938 171.703125 L 144.597656 171.289062 C 144.1875 171.15625 143.789062 170.984375 143.382812 170.832031 L 142.78125 170.597656 L 142.476562 170.480469 L 142.183594 170.351562 L 141 169.832031 C 139.445312 169.109375 137.925781 168.324219 136.488281 167.417969 C 135.058594 166.503906 133.679688 165.527344 132.371094 164.4375 C 131.714844 163.898438 131.078125 163.324219 130.445312 162.738281 L 129.492188 161.839844 L 128.996094 161.367188 L 128.539062 160.921875 C 127.929688 160.324219 127.339844 159.710938 126.769531 159.074219 C 126.199219 158.445312 125.644531 157.796875 125.117188 157.132812 C 124.847656 156.800781 124.59375 156.460938 124.328125 156.128906 C 124.074219 155.789062 123.816406 155.453125 123.574219 155.105469 C 123.074219 154.414062 122.601562 153.710938 122.148438 152.992188 C 121.917969 152.632812 121.703125 152.269531 121.484375 151.90625 L 121.175781 151.371094 L 121.023438 151.101562 L 120.859375 150.800781 C 120.445312 150.050781 120.058594 149.300781 119.683594 148.539062 C 118.945312 147.011719 118.300781 145.441406 117.746094 143.839844 C 117.199219 142.234375 116.730469 140.605469 116.359375 138.949219 C 116.308594 138.742188 116.273438 138.546875 116.226562 138.34375 L 116.164062 138.042969 L 116.101562 137.714844 L 115.980469 137.078125 L 115.863281 136.40625 L 115.386719 133.722656 L 114.398438 128.363281 C 114.066406 126.578125 113.742188 124.789062 113.394531 123.003906 L 112.363281 117.652344 C 112.019531 115.871094 111.652344 114.089844 111.300781 112.304688 L 110.847656 110.058594 C 111.488281 110.097656 112.132812 110.136719 112.773438 110.164062 L 118.015625 110.425781 L 123.261719 110.652344 C 125.011719 110.730469 126.761719 110.78125 128.511719 110.847656 C 130.257812 110.910156 132.011719 110.953125 133.761719 111.007812 L 136.390625 111.066406 L 139.019531 111.117188 C 139.878906 111.128906 140.738281 111.167969 141.601562 111.226562 C 142.460938 111.28125 143.324219 111.363281 144.1875 111.46875 C 145.046875 111.570312 145.910156 111.695312 146.769531 111.84375 C 147.632812 111.992188 148.488281 112.15625 149.347656 112.347656 C 148.546875 111.984375 147.730469 111.648438 146.902344 111.34375 C 146.074219 111.039062 145.234375 110.757812 144.386719 110.503906 C 143.535156 110.257812 142.675781 110.03125 141.808594 109.828125 C 140.9375 109.636719 140.0625 109.464844 139.179688 109.320312 L 136.585938 108.898438 L 133.988281 108.488281 C 132.257812 108.226562 130.527344 107.953125 128.792969 107.703125 C 127.0625 107.457031 125.328125 107.191406 123.59375 106.957031 L 118.394531 106.242188 L 113.1875 105.558594 C 112.320312 105.441406 111.453125 105.339844 110.585938 105.230469 L 107.980469 104.910156 L 104.839844 104.519531 L 105.300781 107.816406 L 105.679688 110.515625 " fill-opacity="1" fill-rule="nonzero"/><path fill="#64dad5" d="M 148.371094 156.917969 C 148.105469 156.789062 147.847656 156.660156 147.582031 156.535156 C 147.316406 156.417969 147.0625 156.277344 146.804688 156.144531 C 146.546875 156.003906 146.285156 155.878906 146.039062 155.730469 C 145.023438 155.167969 144.058594 154.535156 143.117188 153.878906 C 142.175781 153.21875 141.289062 152.492188 140.429688 151.746094 L 139.796875 151.175781 L 139.183594 150.582031 C 138.976562 150.386719 138.785156 150.175781 138.585938 149.972656 C 138.390625 149.769531 138.191406 149.566406 138.007812 149.351562 L 137.4375 148.722656 L 136.898438 148.066406 C 136.714844 147.855469 136.546875 147.625 136.375 147.402344 C 136.199219 147.179688 136.023438 146.960938 135.863281 146.726562 C 135.191406 145.824219 134.597656 144.863281 134.027344 143.894531 L 133.613281 143.160156 L 133.230469 142.410156 C 133.09375 142.164062 132.984375 141.90625 132.863281 141.652344 C 132.746094 141.398438 132.621094 141.148438 132.515625 140.886719 C 132.050781 139.863281 131.691406 138.796875 131.34375 137.730469 L 131.105469 136.921875 L 130.890625 136.105469 L 130.785156 135.695312 L 130.699219 135.285156 L 130.609375 134.871094 C 130.578125 134.730469 130.546875 134.601562 130.519531 134.441406 C 130.277344 133.21875 130.035156 131.996094 129.777344 130.773438 C 129.523438 129.550781 129.265625 128.332031 128.992188 127.113281 C 128.949219 126.910156 128.902344 126.703125 128.855469 126.5 L 131.144531 126.535156 C 132.097656 126.554688 133.050781 126.539062 134.003906 126.542969 C 134.953125 126.550781 135.910156 126.53125 136.863281 126.519531 L 138.277344 126.5 L 138.945312 126.5 L 139.632812 126.519531 C 140.089844 126.539062 140.550781 126.554688 141.007812 126.589844 C 141.46875 126.621094 141.929688 126.667969 142.390625 126.71875 C 142.855469 126.765625 143.316406 126.824219 143.777344 126.898438 C 144.242188 126.964844 144.707031 127.042969 145.171875 127.128906 C 146.101562 127.296875 147.03125 127.511719 147.972656 127.734375 L 147.382812 127.316406 C 147.179688 127.183594 146.976562 127.046875 146.773438 126.917969 C 146.359375 126.664062 145.941406 126.414062 145.511719 126.179688 C 145.082031 125.949219 144.648438 125.722656 144.203125 125.515625 C 143.757812 125.308594 143.308594 125.113281 142.851562 124.925781 C 142.394531 124.738281 141.929688 124.574219 141.460938 124.410156 C 140.992188 124.253906 140.515625 124.101562 140.039062 123.96875 L 139.316406 123.777344 L 138.570312 123.601562 L 138.222656 123.527344 L 137.957031 123.46875 L 137.855469 123.449219 L 137.152344 123.3125 C 136.214844 123.132812 135.28125 122.941406 134.34375 122.777344 C 133.40625 122.613281 132.46875 122.429688 131.527344 122.277344 L 128.714844 121.808594 C 127.773438 121.660156 126.835938 121.511719 125.894531 121.371094 L 122.78125 120.914062 L 123.171875 124.328125 C 123.3125 125.570312 123.464844 126.808594 123.621094 128.046875 C 123.777344 129.285156 123.945312 130.523438 124.121094 131.757812 C 124.289062 132.992188 124.476562 134.226562 124.660156 135.460938 C 124.679688 135.609375 124.714844 135.785156 124.742188 135.953125 L 124.832031 136.457031 L 124.925781 136.960938 L 125.035156 137.464844 C 125.109375 137.796875 125.179688 138.132812 125.265625 138.464844 L 125.535156 139.457031 C 125.621094 139.789062 125.734375 140.113281 125.835938 140.441406 C 125.941406 140.765625 126.042969 141.09375 126.167969 141.414062 L 126.527344 142.375 L 126.929688 143.324219 C 127.488281 144.574219 128.097656 145.804688 128.820312 146.972656 C 128.988281 147.269531 129.179688 147.554688 129.363281 147.839844 C 129.554688 148.125 129.734375 148.417969 129.941406 148.691406 L 130.535156 149.527344 C 130.746094 149.796875 130.957031 150.066406 131.167969 150.335938 C 132.03125 151.394531 132.9375 152.417969 133.929688 153.351562 C 134.925781 154.285156 135.953125 155.179688 137.058594 155.96875 C 137.324219 156.179688 137.609375 156.363281 137.890625 156.554688 C 138.171875 156.746094 138.449219 156.9375 138.738281 157.113281 C 139.027344 157.292969 139.3125 157.472656 139.601562 157.648438 L 140.488281 158.140625 C 140.777344 158.3125 141.085938 158.457031 141.386719 158.609375 C 141.6875 158.757812 141.984375 158.910156 142.296875 159.046875 C 142.605469 159.183594 142.90625 159.324219 143.21875 159.453125 L 144.15625 159.820312 C 145.414062 160.285156 146.6875 160.703125 147.992188 160.984375 C 149.289062 161.277344 150.597656 161.496094 151.914062 161.601562 C 152.238281 161.636719 152.574219 161.660156 152.910156 161.671875 L 153.414062 161.695312 C 153.582031 161.703125 153.75 161.707031 153.902344 161.703125 L 154.84375 161.703125 L 154.960938 161.699219 L 155.003906 161.699219 C 155.003906 161.699219 155.066406 161.707031 155.046875 161.703125 L 155.105469 161.703125 L 155.339844 161.691406 L 155.8125 161.675781 C 157.066406 161.632812 158.324219 161.574219 159.585938 161.5 C 160.84375 161.425781 162.101562 161.332031 163.367188 161.199219 C 162.148438 160.84375 160.925781 160.527344 159.699219 160.226562 C 158.472656 159.925781 157.246094 159.644531 156.019531 159.378906 L 155.328125 159.226562 L 155.269531 159.214844 C 155.242188 159.210938 155.292969 159.214844 155.28125 159.210938 L 155.269531 159.210938 L 155.238281 159.203125 L 155.125 159.175781 L 154.207031 158.964844 C 154.050781 158.933594 153.910156 158.890625 153.769531 158.851562 L 153.347656 158.730469 C 153.066406 158.652344 152.789062 158.578125 152.5 158.484375 L 151.652344 158.21875 L 150.816406 157.917969 C 150.539062 157.820312 150.265625 157.707031 149.992188 157.601562 C 149.71875 157.492188 149.441406 157.394531 149.175781 157.269531 L 148.371094 156.917969 " fill-opacity="1" fill-rule="nonzero"/></svg>
